<?xml version="1.0" encoding="UTF-8"?>
<svg width="20px" height="20px" viewBox="0 0 20 20" version="1.1" xmlns="http://www.w3.org/2000/svg" xmlns:xlink="http://www.w3.org/1999/xlink">
    <!-- Generator: Sketch 52 (66869) - http://www.bohemiancoding.com/sketch -->
    <title>left_list_ic_data</title>
    <desc>Created with Sketch.</desc>
    <g id="Page-1" stroke="none" stroke-width="1" fill="none" fill-rule="evenodd">
        <g id="首页" transform="translate(-24.000000, -674.000000)">
            <g id="分组-17">
                <g id="left_list_ic_data" transform="translate(24.000000, 674.000000)">
                    <rect id="矩形" fill="#D8D8D8" opacity="0" x="0" y="0" width="20" height="20"></rect>
                    <path d="M6.02188026,9.88819857 C6.02188026,9.88819857 6.02188026,10.9715302 6.02188026,13.1381936 C6.02188026,13.6214429 5.67365826,14.0131961 5.24410326,14.0131961 C5.24410326,14.0131961 4.76262126,14.0131961 3.79965726,14.0131961 C3.37010226,14.0131961 3.02188026,13.6214429 3.02188026,13.1381992 C3.02188026,13.1381992 3.02188026,12.0548656 3.02188026,9.88819857 C3.02188026,9.40494919 3.37010226,9.01319607 3.79965726,9.01319607 C3.79965726,9.01319607 4.28113926,9.01319607 5.24410326,9.01319607 C5.67365826,9.01319607 6.02188026,9.40494919 6.02188026,9.88819857 Z" id="Line" fill="#5082F4"></path>
                    <path d="M11.020284,1.80882325 C11.020284,1.80882325 11.020284,5.58391559 11.020284,13.1341003 C11.020284,13.5965676 10.672062,13.9714618 10.242507,13.9714618 C10.242507,13.9714618 9.76102501,13.9714618 8.79806101,13.9714618 C8.36850601,13.9714618 8.02028401,13.5965676 8.02028401,13.1341003 C8.02028401,13.1341003 8.02028401,9.35900793 8.02028401,1.80882325 C8.02028401,1.34635592 8.36850601,0.971461759 8.79806101,0.971461759 C8.79806101,0.971461759 9.27954301,0.971461759 10.242507,0.971461759 C10.672062,0.971461759 11.020284,1.34635592 11.020284,1.80882325 Z" id="Line" fill="#5082F4"></path>
                    <path d="M16.0102934,5.88226088 C16.0102934,5.88226088 16.0102934,8.30447848 16.0102934,13.1489137 C16.0102934,13.6275685 15.6620714,14.0155873 15.2325164,14.0155873 C15.2325164,14.0155873 14.7510344,14.0155873 13.7880704,14.0155873 C13.3585154,14.0155873 13.0102934,13.6275685 13.0102934,13.1489137 C13.0102934,13.1489137 13.0102934,10.7266961 13.0102934,5.88226088 C13.0102934,5.40360608 13.3585154,5.01558728 13.7880704,5.01558728 C13.7880704,5.01558728 14.2695524,5.01558728 15.2325164,5.01558728 C15.6620714,5.01558728 16.0102934,5.40360608 16.0102934,5.88226088 Z" id="Line" fill="#5082F4"></path>
                    <path d="M16.8553916,16.0285692 C16.8553916,16.7379828 16.3723074,17 16,17 C16,17 11.6666667,17 3,17 C2.62769257,17 2.00268729,16.752646 2.00268729,16.0285692 C2.00268729,15.3044924 2.62769257,15.0285692 3,15.0285692 C3,15.0285692 7.33333333,15.0285692 16,15.0285692 C16.3723074,15.0285692 16.8553916,15.3191555 16.8553916,16.0285692 Z" id="Line" fill="#5082F4" opacity="0.5"></path>
                </g>
            </g>
        </g>
    </g>
</svg>