<?xml version="1.0" encoding="UTF-8"?>
<svg width="20px" height="20px" viewBox="0 0 20 20" version="1.1" xmlns="http://www.w3.org/2000/svg" xmlns:xlink="http://www.w3.org/1999/xlink">
    <!-- Generator: Sketch 52 (66869) - http://www.bohemiancoding.com/sketch -->
    <title>left_list_ic_quality</title>
    <desc>Created with Sketch.</desc>
    <g id="Page-1" stroke="none" stroke-width="1" fill="none" fill-rule="evenodd">
        <g id="首页" transform="translate(-24.000000, -424.000000)">
            <g id="分组-17">
                <g id="left_list_ic_quality" transform="translate(24.000000, 424.000000)">
                    <rect id="矩形" opacity="0.213378906" x="0" y="0" width="20" height="20"></rect>
                    <path d="M6,8.05163717 L7.80978598,5.62143129 L8.31250362,2.03943425 C8.35420727,1.75143351 8.49598468,1.48821194 8.71211154,1.29749725 C8.92823839,1.10678257 9.20439701,1.00124223 9.49047555,1 C9.49047555,1 9.51684955,1 9.56959755,1 C10.0428178,1.00047401 10.4965105,1.19197326 10.8311267,1.53245814 C11.1657429,1.87294301 11.3539341,2.3346105 11.3543963,2.81612094 C11.3543963,2.81612094 11.3543963,3.87741396 11.3543963,6 L16,6 C16.630902,6.00080091 17.0538909,6.09770091 17.5,6.55163717 C17.9461216,7.00558976 18.0372048,7.40966683 18.0379919,8.05163717 C18.0379919,8.05163717 18.025328,9.70109144 18,13 C17.9987381,14.1234808 18.0531794,15.3080962 17.2724541,16.1025173 C16.4917163,16.8969548 15.4331832,16.9987251 14.3290734,17 L6,17 L6,8.05163717 Z" id="合并形状" fill="#5082F4"></path>
                    <polygon id="Vector" fill="#5082F4" opacity="0.5" points="5 8 5 17 2 17 2 8"></polygon>
                </g>
            </g>
        </g>
    </g>
</svg>