<?xml version="1.0" encoding="UTF-8"?>
<svg width="16px" height="16px" viewBox="0 0 16 16" version="1.1" xmlns="http://www.w3.org/2000/svg" xmlns:xlink="http://www.w3.org/1999/xlink">
    <!-- Generator: Sketch 52 (66869) - http://www.bohemiancoding.com/sketch -->
    <title>service_ic_invitation</title>
    <desc>Created with Sketch.</desc>
    <g id="Page-1" stroke="none" stroke-width="1" fill="none" fill-rule="evenodd" opacity="0.9">
        <g id="客服工作台" transform="translate(-707.000000, -105.000000)" fill="#28324C" fill-rule="nonzero">
            <g id="service_ic_invitation" transform="translate(707.000000, 105.000000)">
                <path d="M14.2132534,6.9687263 L15.2358733,6.9687263 C15.6567979,6.9687263 16,7.313523 16,7.73640343 C16,8.15928387 15.6567979,8.50408057 15.2358733,8.50408057 L14.2132534,8.50408057 L14.2132534,9.49548076 C14.2132534,9.91836119 13.8709247,10.2631579 13.4491267,10.2631579 C13.0282021,10.2631579 12.685,9.91836119 12.685,9.49548076 L12.685,8.50408057 L11.6641267,8.50408057 C11.2423288,8.50408057 10.9,8.15928387 10.9,7.73640343 C10.9,7.313523 11.2423288,6.9687263 11.6641267,6.9687263 L12.685,6.9687263 L12.685,5.97820345 C12.685,5.55532302 13.0282021,5.21052632 13.4491267,5.21052632 C13.8709247,5.21052632 14.2132534,5.55532302 14.2132534,5.97820345 L14.2132534,6.9687263 Z M-1.59872116e-14,13.2601629 C-1.59872116e-14,11.0838323 2.93609035,10.5391093 6.375,10.5391093 C9.83177632,10.5391093 12.75,11.1026158 12.75,13.2789464 C12.75,15.455277 9.81305885,16 6.375,16 C2.91822368,16 -1.59872116e-14,15.4356397 -1.59872116e-14,13.2601629 Z M10.593237,5.23312949 C10.593237,7.58278103 8.71638529,9.46625898 6.375,9.46625898 C4.03361471,9.46625898 2.15676298,7.58278103 2.15676298,5.23312949 C2.15676298,2.88347795 4.03361471,1 6.375,1 C8.71638529,1 10.593237,2.88347795 10.593237,5.23312949 Z" id="Add-User"></path>
            </g>
        </g>
    </g>
</svg>