<?xml version="1.0" encoding="UTF-8"?>
<svg width="40px" height="40px" viewBox="0 0 40 40" version="1.1" xmlns="http://www.w3.org/2000/svg" xmlns:xlink="http://www.w3.org/1999/xlink">
    <!-- Generator: Sketch 52 (66869) - http://www.bohemiancoding.com/sketch -->
    <title>home_banner_ic_current</title>
    <desc>Created with Sketch.</desc>
    <g id="Page-1" stroke="none" stroke-width="1" fill="none" fill-rule="evenodd">
        <g id="首页_2" transform="translate(-824.000000, -170.000000)">
            <g id="home_banner_ic_current" transform="translate(824.000000, 170.000000)">
                <g id="分组-48-copy-2" fill-rule="nonzero" opacity="0.222842262">
                    <rect id="矩形" x="0" y="0" width="40" height="40"></rect>
                </g>
                <g id="分组-13" transform="translate(6.000000, 6.000000)">
                    <g id="分组-7">
                        <path d="M12.5006573,25.99999 C10.3700691,26.0025826 8.27292582,25.5008487 6.38596668,24.5393873 L0.722570228,26.3094195 L2.18390887,21.2073951 C0.121729829,18.7636109 -1.00908545,15.6826483 -0.999949144,12.4992549 C-0.999949144,5.04366458 5.04467185,-1 12.5000254,-1 C19.954886,-1 26,5.04465194 26,12.4992549 C26,19.9558676 19.9559677,25.9996485 12.5006573,25.99999 Z" id="合并形状" stroke="#FFFFFF" stroke-width="2"></path>
                        <path d="M6.5,14 C5.67157288,14 5,13.3284271 5,12.5 C5,11.6715729 5.67157288,11 6.5,11 C7.32842712,11 8,11.6715729 8,12.5 C8,13.3284271 7.32842712,14 6.5,14 Z M18.5,14 C17.6715729,14 17,13.3284271 17,12.5 C17,11.6715729 17.6715729,11 18.5,11 C19.3284271,11 20,11.6715729 20,12.5 C20,13.3284271 19.3284271,14 18.5,14 Z M12.5,14 C11.6715729,14 11,13.3284271 11,12.5 C11,11.6715729 11.6715729,11 12.5,11 C13.3284271,11 14,11.6715729 14,12.5 C14,13.3284271 13.3284271,14 12.5,14 Z" id="合并形状" fill="#FFFFFF" fill-rule="nonzero" opacity="0.5"></path>
                        <path d="M28.002627,26.075207 L29.5,30.7678968 L23.6835544,29.2160029 C22.4017242,29.7203479 20.9869579,30 19.5,30 C15.8687483,30 12.6680256,28.3322402 10.7824989,25.7971339 C11.5031231,25.9305086 12.2440259,26 13,26 C13.2338208,26 13.4661998,25.9933521 13.6969829,25.9802223 C15.2160899,27.2331087 17.2565453,28 19.5,28 C20.7339248,28 21.9064399,27.7680061 22.9645767,27.3507552 C23.0829661,27.3040707 23.1999,27.2550778 23.3153284,27.2038321 L26.5,28 L25.7077623,25.623287 C25.8815529,25.4594104 26.0471055,25.2886475 26.2038375,25.1115125 C27.3293532,23.8394798 28,22.2388449 28,20.5 C28,18.4853533 27.0997358,16.6562371 25.6348069,15.3087687 C25.802048,14.5654996 25.9142093,13.7990556 25.9663751,13.0147306 C28.4218542,14.7536168 30,17.4600627 30,20.5 C30,22.5829712 29.2590577,24.5093675 28.002627,26.075207 Z" id="合并形状" fill="#FFFFFF" fill-rule="nonzero"></path>
                    </g>
                </g>
            </g>
        </g>
    </g>
</svg>