<?xml version="1.0" encoding="UTF-8"?>
<svg width="48px" height="48px" viewBox="0 0 48 48" version="1.1" xmlns="http://www.w3.org/2000/svg" xmlns:xlink="http://www.w3.org/1999/xlink">
    <title>menu_ic_night</title>
    <g id="页面-1" stroke="none" stroke-width="1" fill="none" fill-rule="evenodd">
        <g id="设置" transform="translate(-30.000000, -278.000000)">
            <g id="1" transform="translate(0.000000, 222.000000)">
                <g id="ic" transform="translate(30.000000, 56.000000)">
                    <rect id="矩形" fill="#EAEAEA" opacity="0" x="0" y="0" width="48" height="48"></rect>
                    <g transform="translate(6.000000, 6.000000)" stroke-width="3">
                        <path d="M19.136818,37 C13.8568027,37 9.35010422,35.1305298 5.60932251,31.3878876 C1.86854079,27.6452454 0,23.1326036 0,17.8536641 C0,14.055493 1.07302345,10.538668 3.21537025,7.28838129 C5.36141714,4.04179651 8.16607839,1.65035546 11.629354,0.106654382 C11.8476588,-0.0599320755 12.0696637,-0.0303166941 12.2879684,0.188096662 C12.5617744,0.354683119 12.6468763,0.599009889 12.5358738,0.932182803 C11.6589547,3.02747011 11.2186451,5.14126708 11.2186451,7.28838129 C11.2186451,12.1860229 12.9650832,16.3802995 16.4579595,19.874913 C19.9508358,23.3695265 24.1430274,25.1168333 29.0382343,25.1168333 C31.7318931,25.1168333 34.0703442,24.70592 36.0498875,23.8803916 C36.2681923,23.7101033 36.486497,23.7397186 36.7048018,23.958132 C36.9786078,24.1247185 37.0637097,24.3690452 36.9527072,24.7022181 C35.524476,28.4448604 33.2008252,31.4286088 29.9817549,33.6571652 C26.7663847,35.8857217 23.1514057,37 19.136818,37 Z" id="路径" stroke="#5082F4"></path>
                        <path d="M22,5 C28.1538462,5 31.4871795,8.33333333 32,15" id="路径-3" stroke="#6ECC94" stroke-linecap="round"></path>
                    </g>
                </g>
            </g>
        </g>
    </g>
</svg>