<?xml version="1.0" encoding="UTF-8"?>
<svg width="24px" height="24px" viewBox="0 0 24 24" version="1.1" xmlns="http://www.w3.org/2000/svg" xmlns:xlink="http://www.w3.org/1999/xlink">
    <!-- Generator: Sketch 52 (66869) - http://www.bohemiancoding.com/sketch -->
    <title>service_bot_ic_add</title>
    <desc>Created with Sketch.</desc>
    <g id="Page-1" stroke="none" stroke-width="1" fill-rule="evenodd">
        <g id="客服工作台" transform="translate(-586.000000, -1008.000000)" fill-rule="nonzero">
            <g id="service_bot_ic_file" transform="translate(586.000000, 1008.000000)">
                <path d="M10.4996135,5 C13.536463,4.9998619 16.3426869,6.61992254 17.8611515,9.24988841 C19.3796162,11.8798543 19.3796162,15.1201457 17.8611515,17.7501116 C16.3426869,20.3800775 13.536463,22.0001381 10.4996135,22 C5.80534404,21.9997865 2,18.1942694 2,13.5 C2,8.80573057 5.80534404,5.00021347 10.4996135,5 Z M7.70112014,10.0005387 C6.99120683,10.0005387 6.41570838,10.58613 6.41570838,11.3084934 C6.4157084,12.0308569 6.99120684,12.6164482 7.70112014,12.6164482 C8.41103344,12.6164482 8.98653188,12.0308569 8.9865319,11.3084934 C8.9865319,10.58613 8.41103345,10.0005387 7.70112014,10.0005387 Z M12.0115907,11.3084934 C12.0115907,12.0311544 12.5873262,12.6169869 13.2975319,12.6169869 C14.0077376,12.6169869 14.5834731,12.0311544 14.5834731,11.3084934 C14.5834731,10.5858325 14.0077376,10 13.2975319,10 C12.5873262,10 12.0115907,10.5858325 12.0115907,11.3084934 Z M6,14.8412641 C6,16.9023164 7.87159073,19 10.4815907,19 C13.0926495,19 15,16.9023164 15,14.8412641 L6,14.8412641 Z" id="合并形状"></path>
                <path d="M19,3 L19,-1.1361639e-12 L21,-1.1357965e-12 L21,3 L24,3 L24,5 L21,5 L21,8 L19,8 L19,5 L16,5 L16,3 L19,3 Z" id="合并形状"></path>
            </g>
        </g>
    </g>
</svg>
