<?xml version="1.0" encoding="UTF-8"?>
<svg width="20px" height="20px" viewBox="0 0 20 20" version="1.1" xmlns="http://www.w3.org/2000/svg" xmlns:xlink="http://www.w3.org/1999/xlink">
    <!-- Generator: Sketch 52 (66869) - http://www.bohemiancoding.com/sketch -->
    <title>left_list_ic_custom</title>
    <desc>Created with Sketch.</desc>
    <g id="Page-1" stroke="none" stroke-width="1" fill="none" fill-rule="evenodd">
        <g id="首页" transform="translate(-24.000000, -324.000000)">
            <g id="分组-17">
                <g id="left_list_ic_custom" transform="translate(24.000000, 324.000000)">
                    <rect id="矩形" opacity="0.213378906" x="0" y="0" width="20" height="20"></rect>
                    <g id="分组-36" transform="translate(3.000000, 3.000000)" fill="#5082F4">
                        <path d="M8.58461726,15 C8.58461726,15 5.86153909,15 0.415382738,15 C0.18597516,15 1.72608594e-11,14.814024 1.72715175e-11,14.5846104 C1.72644121e-11,14.5846104 1.72626358e-11,10.8615368 1.72644121e-11,3.41538957 C1.72644121e-11,3.18597599 0.18597516,3 0.415382738,3 C0.415382738,3 3.13846091,3 8.58461726,3 C8.81402484,3 9,3.18597599 9,3.41538957 C9,3.41538957 9,7.13846319 9,14.5846104 C9,14.814024 8.81402484,15 8.58461726,15 Z M15,3.4121779 C15,3.4121779 15,7.1081186 15,14.5 C15,14.7275517 14.8209127,15 14.6000031,15 C14.6000031,15 13.2333354,15 10.5,15 C10.2790905,15 10,14.7275517 10,14.5 C10,14.5 10,10.8040593 10,3.4121779 C10,3.18462621 10.1262106,3 10.5,3 C10.7491929,3 12.1158606,3.0000532 14.6000031,3.00015959 C14.8209127,3.00015959 15,3.18462621 15,3.4121779 Z" id="合并形状"></path>
                        <path d="M8.53799193,-6.05866372 C8.53799193,-6.05866372 8.53799193,-1.34101892 8.53799193,8.09427068 C8.53799193,8.32818428 8.38875393,8.51780348 8.20465793,8.51780348 C8.20465793,8.51780348 7.76021393,8.51780348 6.87132593,8.51780348 C6.68722993,8.51780348 6.53799193,8.32818428 6.53799193,8.09427068 C6.53799193,8.09427068 6.53799193,3.37662588 6.53799193,-6.05866372 C6.53799193,-6.29257732 6.68722993,-6.48219652 6.87132593,-6.48219652 C6.87132593,-6.48219652 7.31576993,-6.48219652 8.20465793,-6.48219652 C8.38875393,-6.48219652 8.53799193,-6.29257732 8.53799193,-6.05866372 Z" id="Vector" opacity="0.5" transform="translate(7.537992, 1.017803) rotate(90.000000) translate(-7.537992, -1.017803) "></path>
                    </g>
                </g>
            </g>
        </g>
    </g>
</svg>