<?xml version="1.0" encoding="UTF-8"?>
<svg width="20px" height="20px" viewBox="0 0 20 20" version="1.1" xmlns="http://www.w3.org/2000/svg" xmlns:xlink="http://www.w3.org/1999/xlink">
    <!-- Generator: Sketch 52 (66869) - http://www.bohemiancoding.com/sketch -->
    <title>left_list_ic_session</title>
    <desc>Created with Sketch.</desc>
    <g id="Page-1" stroke="none" stroke-width="1" fill="none" fill-rule="evenodd">
        <g id="首页" transform="translate(-24.000000, -374.000000)">
            <g id="分组-17">
                <g id="left_list_ic_session" transform="translate(24.000000, 374.000000)">
                    <rect id="矩形" opacity="0.213378906" x="0" y="0" width="20" height="20"></rect>
                    <path d="M8.50001322,14.9999948 C12.0893003,14.9999948 15,12.0904099 15,8.49961254 C15,4.91035469 12.0893003,2 8.50001322,2 C4.91072618,2 2.00002645,4.90958495 2.00002645,8.49961254 C1.99536881,10.1231773 2.60609839,11.6905839 3.71377357,12.8978582 L3.14121551,14.8968508 L5.37254254,14.1994741 C6.32753072,14.725927 7.40470067,15.0013789 8.50001322,14.9999948 Z" id="合并形状" fill="#5082F4"></path>
                    <path d="M16.3880512,9 C17.4253652,9.88518028 18.0046434,11.0783519 17.999972,12.3201629 C18.0042514,13.4891041 17.4912222,14.6177055 16.5604242,15.4869913 L17.0412052,16.9264587 L15.1665321,16.4242098 C14.3642125,16.8026128 13.4592406,17.0009253 12.5390081,16.9999968 C11.62217,16.9999968 10.7593731,16.8067639 10,16.4648904 C13.6850558,15.6066862 16.3945734,12.7207104 16.3945734,9.29258739 C16.3945734,9.19479749 16.3917782,9.09700758 16.3871195,9 L16.3880512,9 Z" id="路径" fill="#5082F4" opacity="0.5"></path>
                </g>
            </g>
        </g>
    </g>
</svg>