<?xml version="1.0" encoding="UTF-8"?>
<svg width="24px" height="24px" viewBox="0 0 24 24" version="1.1" xmlns="http://www.w3.org/2000/svg" xmlns:xlink="http://www.w3.org/1999/xlink">
    <!-- Generator: Sketch 52 (66869) - http://www.bohemiancoding.com/sketch -->
    <title>com_nav_ic_full</title>
    <desc>Created with Sketch.</desc>
    <g id="Page-1" stroke="none" stroke-width="1" fill="none" fill-rule="evenodd">
        <g id="首页" transform="translate(-1446.000000, -18.000000)" fill-rule="nonzero">
            <g id="分组-14" transform="translate(242.000000, 0.000000)">
                <g id="com_nav_ic_full" transform="translate(1204.000000, 18.000000)">
                    <rect id="矩形" fill="#D8D8D8" opacity="0" x="0" y="0" width="24" height="24"></rect>
                    <path d="M20,5 L15,10" id="路径-4" stroke="#5082F4" stroke-width="2"></path>
                    <path d="M10,14 L5,19" id="路径-4-copy" stroke="#5082F4" stroke-width="2"></path>
                    <polygon id="路径-5" fill="#6ECC94" points="9 4 4 4 4 9 6 7 6 6 7 6"></polygon>
                    <polygon id="路径-5-copy" fill="#5082F4" transform="translate(18.500000, 6.500000) scale(-1, 1) translate(-18.500000, -6.500000) " points="21 4 16 4 16 9 18 7 18 6 19 6"></polygon>
                    <polygon id="路径-5-copy-3" fill="#5082F4" transform="translate(6.500000, 17.500000) scale(1, -1) translate(-6.500000, -17.500000) " points="9 15 4 15 4 20 6 18 6 17 7 17"></polygon>
                    <polygon id="路径-5-copy-2" fill="#5082F4" transform="translate(18.500000, 17.500000) scale(-1, -1) translate(-18.500000, -17.500000) " points="21 15 16 15 16 20 18 18 18 17 19 17"></polygon>
                </g>
            </g>
        </g>
    </g>
</svg>