<?xml version="1.0" encoding="UTF-8"?>
<svg width="24px" height="24px" viewBox="0 0 24 24" version="1.1" xmlns="http://www.w3.org/2000/svg" xmlns:xlink="http://www.w3.org/1999/xlink">
    <title>com_nav_ic_up</title>
    <g id="Page-1" stroke="none" stroke-width="1" fill="none" fill-rule="evenodd">
        <g id="首页_2" transform="translate(-1446.000000, -18.000000)" fill-rule="nonzero">
            <g id="com_nav_ic_full" transform="translate(1446.000000, 18.000000)">
                <rect id="矩形" fill="#D8D8D8" opacity="0" x="0" y="0" width="24" height="24"></rect>
                <line x1="19" y1="5" x2="14" y2="10" id="路径-4" stroke="#5082F4" stroke-width="2"></line>
                <line x1="10" y1="14" x2="5" y2="19" id="路径-4-copy" stroke="#5082F4" stroke-width="2"></line>
                <polygon id="路径-5" fill="#6ECC94" transform="translate(6.500000, 6.500000) scale(-1, -1) translate(-6.500000, -6.500000) " points="9 4 4 4 4 9 6 7 6 6 7 6"></polygon>
                <polygon id="路径-5-copy" fill="#5082F4" transform="translate(15.500000, 8.500000) scale(1, -1) translate(-15.500000, -8.500000) " points="18 6 13 6 13 11 15 9 15 8 16 8"></polygon>
                <polygon id="路径-5-copy-3" fill="#5082F4" transform="translate(8.500000, 15.500000) scale(-1, 1) translate(-8.500000, -15.500000) " points="11 13 6 13 6 18 8 16 8 15 9 15"></polygon>
                <polygon id="路径-5-copy-2" fill="#5082F4" points="20 15 15 15 15 20 17 18 17 17 18 17"></polygon>
            </g>
        </g>
    </g>
</svg>