<?xml version="1.0" encoding="UTF-8"?>
<svg width="20px" height="20px" viewBox="0 0 20 20" version="1.1" xmlns="http://www.w3.org/2000/svg" xmlns:xlink="http://www.w3.org/1999/xlink">
    <!-- Generator: Sketch 52 (66869) - http://www.bohemiancoding.com/sketch -->
    <title>left_list_ic_grouping</title>
    <desc>Created with Sketch.</desc>
    <g id="Page-1" stroke="none" stroke-width="1" fill="none" fill-rule="evenodd">
        <g id="首页" transform="translate(-24.000000, -174.000000)">
            <g id="分组-17">
                <g id="left_list_ic_grouping" transform="translate(24.000000, 174.000000)">
                    <rect id="矩形" opacity="0.213378906" x="0" y="0" width="20" height="20"></rect>
                    <path d="M12.1692722,3 C12.1692722,3 12.5026055,2.33333333 13.1692722,1 C14.3638549,2.29364814 15.1692722,4.05817511 15.1692722,5.94141569 C15.1692722,9.96752561 12.0319934,13 7.94005169,13 C5.21209053,13 2.89873997,13 1,13 L4.1692722,10 L4.1692722,11 L7.94005169,11 C11.2737281,11 13.1692722,9.37949029 13.1692722,6 C13.1692722,5.14487312 13.1124785,4.04506974 12.1692722,3 Z" id="Vector-Copy" fill="#5082F4" opacity="0.5" transform="translate(8.084636, 7.000000) scale(-1, -1) translate(-8.084636, -7.000000) "></path>
                    <path d="M16.1692722,9 C16.1692722,9 16.5026055,8.33333333 17.1692722,7 C18.3638549,8.29364814 19.1692722,10.0581751 19.1692722,11.9414157 C19.1692722,15.9675256 16.0319934,19 11.9400517,19 C9.21209053,19 6.89873997,19 5,19 L8.1692722,16 L8.1692722,17 L11.9400517,17 C15.2737281,17 17.1692722,15.3794903 17.1692722,12 C17.1692722,11.1448731 17.1124785,10.0450697 16.1692722,9 Z" id="Vector-Copy-2" fill="#5082F4"></path>
                    <path d="M11.0479425,11.1058575 C10.9483527,11.0100848 10.954992,10.7852271 11.0432001,10.4969836 C11.1318824,10.2087401 12.2060288,9.03772207 12.2060288,7.97404348 C12.2060288,6.33156458 11.0972631,5 9.73051251,5 C8.36518464,5 7.25736737,6.33202725 7.25736737,7.97404348 C7.25736737,8.99330574 8.21485156,10.2078148 8.33293653,10.4275831 C8.4510215,10.6492021 8.42209306,10.9851006 8.32961687,11.086888 C8.189717,11.2400318 7.67706698,11.3931756 7.67706698,11.3931756 C7.67706698,11.3931756 7.04728045,11.6664594 5.7877074,12.2130271 C5.3461929,12.3675589 5,12.7728579 5,13.2309013 C5,13.2309013 5,13.3032321 5,13.4478936 C5,13.9475773 5.48829845,14 6,14 C6,14 8.5,14 13.5,14 C14.0112273,14 14.4847369,13.9471146 14.4847369,13.4478936 C14.4847369,13.4478936 14.4847369,13.3755628 14.4847369,13.2309013 C14.4856853,12.7728579 14.1394924,12.3550668 13.6984522,12.2009976 C13.6984522,12.2009976 12.9999013,11.9357334 11.6027996,11.405205 C11.6027996,11.405205 11.2030179,11.2543746 11.0479425,11.1058575 Z" id="Vector" fill="#5082F4"></path>
                </g>
            </g>
        </g>
    </g>
</svg>