<?xml version="1.0" encoding="UTF-8"?>
<svg width="16px" height="16px" viewBox="0 0 16 16" version="1.1" xmlns="http://www.w3.org/2000/svg" xmlns:xlink="http://www.w3.org/1999/xlink">
    <!-- Generator: Sketch 52 (66869) - http://www.bohemiancoding.com/sketch -->
    <title>service_ic_close</title>
    <desc>Created with Sketch.</desc>
    <g id="Page-1" stroke="none" stroke-width="1" fill="none" fill-rule="evenodd" opacity="0.9">
        <g id="客服工作台" transform="translate(-838.000000, -105.000000)" fill="#28324C" fill-rule="nonzero">
            <g id="service_ic_close" transform="translate(838.000000, 105.000000)">
                <path d="M4.2525,1 L10.755,1 C13.2975,1 15,2.785 15,5.44 L15,11.56825 C15,14.21575 13.2975,16 10.755,16 L4.2525,16 C1.71,16 0,14.21575 0,11.56825 L0,5.44 C0,2.785 1.71,1 4.2525,1 Z M10.7575,10.82825 L8.4225,8.49325 L10.7575,6.1575 C11.0125,5.90325 11.0125,5.48325 10.7575,5.22825 C10.5025,4.9725 10.09,4.9725 9.8275,5.22825 L7.5,7.5625 L5.165,5.22825 C4.9025,4.9725 4.49,4.9725 4.235,5.22825 C3.98,5.48325 3.98,5.90325 4.235,6.1575 L6.57,8.49325 L4.235,10.82075 C3.98,11.08325 3.98,11.49575 4.235,11.75 C4.3625,11.8775 4.535,11.94575 4.7,11.94575 C4.8725,11.94575 5.0375,11.8775 5.165,11.75 L7.5,9.42325 L9.835,11.75 C9.9625,11.88575 10.1275,11.94575 10.2925,11.94575 C10.465,11.94575 10.63,11.8775 10.7575,11.75 C11.0125,11.49575 11.0125,11.08325 10.7575,10.82825 Z" id="Close-Square"></path>
            </g>
        </g>
    </g>
</svg>