<?xml version="1.0" encoding="UTF-8"?>
<svg width="24px" height="24px" viewBox="0 0 24 24" version="1.1" xmlns="http://www.w3.org/2000/svg" xmlns:xlink="http://www.w3.org/1999/xlink">
    <!-- Generator: Sketch 52 (66869) - http://www.bohemiancoding.com/sketch -->
    <title>com_nav_ic_website</title>
    <desc>Created with Sketch.</desc>
    <g id="Page-1" stroke="none" stroke-width="1" fill="none" fill-rule="evenodd">
        <g id="首页" transform="translate(-324.000000, -18.000000)">
            <g id="分组-14" transform="translate(242.000000, 0.000000)">
                <g id="com_nav_ic_website" transform="translate(82.000000, 18.000000)">
                    <rect id="矩形-copy-11" fill-rule="nonzero" x="0" y="0" width="24" height="24"></rect>
                    <path d="M13.9150863,20.3328753 C13.1342113,19.5337086 12.8530863,18.7908753 13.071753,18.1042919 C13.399753,17.0744586 13.9407947,17.1353336 14.1767113,16.4985836 C14.4125863,15.8617919 13.7462113,14.9548753 15.2248363,14.1795836 C16.2105863,13.6627086 17.5659613,14.2615836 19.290878,15.9761669" id="路径" stroke="#6ECC94" stroke-width="1.66666667" stroke-linecap="round"></path>
                    <path d="M12,21 C16.970565,21 21,16.970561 21,11.999991 C21,7.02942103 16.970565,3 12,3 C7.029435,3 3,7.02942103 3,11.999991 C3,16.970561 7.029435,21 12,21 Z" id="路径" stroke="#5082F4" stroke-width="1.66666667"></path>
                    <path d="M3.548413,14.247275 C4.64504633,14.687025 5.43449633,14.687025 5.91670466,14.247275 C6.640038,13.58765 6.01587133,11.5856917 7.028913,11.0335667 C8.041913,10.4814417 9.58532966,12.9288584 11.027913,12.1235667 C12.4704547,11.3182334 10.8919963,9.17090003 11.8930797,8.30035836 C12.894163,7.4298167 14.195913,8.41160836 14.4234547,6.95598336 C14.6509963,5.50037503 13.361788,6.1316917 13.114413,4.75616253 C12.9494547,3.8391542 12.9494547,3.35695836 13.114413,3.30957086" id="路径" stroke="#5082F4" stroke-width="1.66666667" stroke-linecap="round"></path>
                </g>
            </g>
        </g>
    </g>
</svg>