<?xml version="1.0" encoding="UTF-8"?>
<svg width="48px" height="48px" viewBox="0 0 48 48" version="1.1" xmlns="http://www.w3.org/2000/svg" xmlns:xlink="http://www.w3.org/1999/xlink">
    <title>menu_ic_daytime</title>
    <g id="页面-1" stroke="none" stroke-width="1" fill="none" fill-rule="evenodd">
        <g id="设置" transform="translate(-30.000000, -222.000000)">
            <g id="1" transform="translate(0.000000, 222.000000)">
                <g id="ic" transform="translate(30.000000, 0.000000)">
                    <rect id="矩形" fill="#EAEAEA" opacity="0" x="0" y="1.13686838e-13" width="48" height="48"></rect>
                    <g transform="translate(2.000000, 1.000000)" id="形状结合">
                        <path d="M22.5,39 C23.3284271,39 24,39.6715729 24,40.5 L24,43.5 C24,44.3284271 23.3284271,45 22.5,45 C21.6715729,45 21,44.3284271 21,43.5 L21,40.5 C21,39.6715729 21.6715729,39 22.5,39 Z M10.8327381,34.1672619 C11.4185245,34.7530483 11.4185245,35.7027958 10.8327381,36.2885822 L8.71141777,38.4099026 C8.12563133,38.995689 7.17588386,38.995689 6.59009742,38.4099026 C6.00431099,37.8241161 6.00431099,36.8743687 6.59009742,36.2885822 L8.71141777,34.1672619 C9.2972042,33.5814755 10.2469517,33.5814755 10.8327381,34.1672619 Z M43.5,21 C44.3284271,21 45,21.6715729 45,22.5 C45,23.3284271 44.3284271,24 43.5,24 L40.5,24 C39.6715729,24 39,23.3284271 39,22.5 C39,21.6715729 39.6715729,21 40.5,21 L43.5,21 Z M4.5,21 C5.32842712,21 6,21.6715729 6,22.5 C6,23.3284271 5.32842712,24 4.5,24 L1.5,24 C0.671572875,24 0,23.3284271 0,22.5 C0,21.6715729 0.671572875,21 1.5,21 L4.5,21 Z M38.4099026,6.59009742 C38.995689,7.17588386 38.995689,8.12563133 38.4099026,8.71141777 L36.2885822,10.8327381 C35.7027958,11.4185245 34.7530483,11.4185245 34.1672619,10.8327381 C33.5814755,10.2469517 33.5814755,9.2972042 34.1672619,8.71141777 L36.2885822,6.59009742 C36.8743687,6.00431099 37.8241161,6.00431099 38.4099026,6.59009742 Z M22.5,0 C23.3284271,-1.52179594e-16 24,0.671572875 24,1.5 L24,4.5 C24,5.32842712 23.3284271,6 22.5,6 C21.6715729,6 21,5.32842712 21,4.5 L21,1.5 C21,0.671572875 21.6715729,1.52179594e-16 22.5,0 Z" fill="#5082F4"></path>
                        <path d="M22.5,-1.13686838e-13 C23.3284271,-1.13839017e-13 24,0.671572875 24,1.5 L24,4.5 C24,5.32842712 23.3284271,6 22.5,6 C21.6715729,6 21,5.32842712 21,4.5 L21,1.5 C21,0.671572875 21.6715729,-1.13534658e-13 22.5,-1.13686838e-13 Z M22.5,39 C23.3284271,39 24,39.6715729 24,40.5 L24,43.5 C24,44.3284271 23.3284271,45 22.5,45 C21.6715729,45 21,44.3284271 21,43.5 L21,40.5 C21,39.6715729 21.6715729,39 22.5,39 Z" fill="#6ECC94" transform="translate(22.500000, 22.500000) rotate(-45.000000) translate(-22.500000, -22.500000) "></path>
                        <path d="M22.5,9 C29.9558441,9 36,15.0441559 36,22.5 C36,29.9558441 29.9558441,36 22.5,36 C15.0441559,36 9,29.9558441 9,22.5 C9,15.0441559 15.0441559,9 22.5,9 Z M22.5,12 C16.7010101,12 12,16.7010101 12,22.5 C12,28.2989899 16.7010101,33 22.5,33 C28.2989899,33 33,28.2989899 33,22.5 C33,16.7010101 28.2989899,12 22.5,12 Z" fill="#5082F4"></path>
                    </g>
                </g>
            </g>
        </g>
    </g>
</svg>