<?xml version="1.0" encoding="UTF-8"?>
<svg width="20px" height="20px" viewBox="0 0 20 20" version="1.1" xmlns="http://www.w3.org/2000/svg" xmlns:xlink="http://www.w3.org/1999/xlink">
    <title>left_btn_ic_service</title>
    <g id="Page-1" stroke="none" stroke-width="1" fill="none" fill-rule="evenodd">
        <g id="首页_2" transform="translate(-25.000000, -82.000000)" fill="#FFFFFF">
            <g id="分组-22" transform="translate(10.000000, 68.000000)">
                <g id="left_btn_ic_qr" transform="translate(15.000000, 14.000000)">
                    <g id="教师工作台" transform="translate(2.000000, 2.000000)">
                        <path d="M4,4 C4,6.20913901 5.790861,8 8,8 C10.209139,8 12,6.20913901 12,4 C12,2.57093767 11.2376043,1.25042958 10,0.535898391 C8.7623957,-0.178632797 7.2376043,-0.178632797 6,0.535898391 C4.76239567,1.25042958 4,2.57093767 4,4 L4,4 Z" id="路径"></path>
                        <path d="M10.486969,8.36716729 C13.6735772,9.37019976 15.5708907,12.3302063 15.9932847,15.9453283 C16.0602397,16.5059377 15.6179304,17 15.0498267,17 L15.0498267,17 L0.950173286,17 C0.382069573,17 -0.0602397458,16.5079543 0.00671533466,15.9453283 C0.430429014,12.3399034 2.31690676,9.38437109 5.49126128,8.37390733 C5.59706688,8.56745589 5.85509478,8.80588792 6,8.88707622 L6,8.88707622 L7.29572338,9.51516696 L6,14.8804486 L7.99818016,16 L10,14.8804486 L8.70427662,9.51516696 C9.41765241,9.25601156 9.84956021,9.08428923 10,9 C10.1289484,8.92775208 10.3474773,8.65282713 10.4689978,8.40685603 Z" id="合并形状" fill-rule="nonzero"></path>
                    </g>
                </g>
            </g>
        </g>
    </g>
</svg>