<?xml version="1.0" encoding="UTF-8"?>
<svg width="24px" height="24px" viewBox="0 0 24 24" version="1.1" xmlns="http://www.w3.org/2000/svg" xmlns:xlink="http://www.w3.org/1999/xlink">
    <!-- Generator: Sketch 52 (66869) - http://www.bohemiancoding.com/sketch -->
    <title>com_nav_ic_pack</title>
    <desc>Created with Sketch.</desc>
    <g id="Page-1" stroke="none" stroke-width="1" fill="none" fill-rule="evenodd">
        <g id="首页" transform="translate(-270.000000, -18.000000)">
            <g id="分组-14" transform="translate(242.000000, 0.000000)">
                <g id="com_nav_ic_pack" transform="translate(28.000000, 18.000000)">
                    <rect id="矩形-copy-11" fill-rule="nonzero" x="0" y="0" width="24" height="24"></rect>
                    <g id="分组-18" transform="translate(4.000000, 5.000000)">
                        <polygon id="矩形-70" fill="#5082F4" points="16 2 0 2 0 0 16 0"></polygon>
                        <polygon id="矩形-72" fill="#5082F4" points="16 14 0 14 0 12 16 12"></polygon>
                        <polygon id="矩形-71" fill="#5082F4" points="16 8 5 8 5 6 16 6"></polygon>
                        <path d="M1.416756,5.519638 C1.442104,5.506759 1.4706,5.5 1.499572,5.5 C1.528544,5.5 1.557044,5.506759 1.582388,5.519638 C1.607736,5.53252 1.629104,5.551102 1.64448,5.573641 C1.64448,5.573641 2.25432267,6.469049 3.474008,8.259865 C3.4902,8.283646 3.499156,8.310973 3.499944,8.339008 C3.500732,8.36704 3.49332,8.394757 3.478484,8.41927 C3.463648,8.443786 3.441924,8.464204 3.41558,8.4784 C3.389232,8.492596 3.359224,8.500057 3.328672,8.5 C3.328672,8.5 2.10955733,8.5 -0.328672,8.5 C-0.359224,8.500057 -0.389232,8.492596 -0.41558,8.4784 C-0.441924,8.464204 -0.463648,8.443786 -0.478484,8.41927 C-0.49332,8.394757 -0.500728,8.36704 -0.499944,8.339008 C-0.499156,8.310973 -0.4902,8.283646 -0.474008,8.259865 C-0.474008,8.259865 0.135549333,7.364457 1.354664,5.573641 C1.370044,5.551102 1.391408,5.53252 1.416756,5.519638 C1.416756,5.519638 1.416756,5.519638 1.416756,5.519638 Z" id="路径-181" fill="#6ECC94" transform="translate(1.500000, 7.000000) rotate(-90.000000) translate(-1.500000, -7.000000) "></path>
                    </g>
                </g>
            </g>
        </g>
    </g>
</svg>