<?xml version="1.0" encoding="UTF-8"?>
<svg width="24px" height="24px" viewBox="0 0 24 24" version="1.1" xmlns="http://www.w3.org/2000/svg" xmlns:xlink="http://www.w3.org/1999/xlink">
    <!-- Generator: Sketch 52 (66869) - http://www.bohemiancoding.com/sketch -->
    <title>service_bot_ic_record</title>
    <desc>Created with Sketch.</desc>
    <g id="Page-1" stroke="none" stroke-width="1" fill-rule="evenodd">
        <g id="客服工作台" transform="translate(-674.000000, -1008.000000)" fill-rule="nonzero">
            <g id="service_bot_ic_record" transform="translate(674.000000, 1008.000000)">
                <path d="M20.0312838,9.82626164 C20.5660152,9.82626164 21,10.2538635 21,10.7828653 C21,15.0866252 17.7005527,18.6404079 13.4692005,19.1177531 L13.4692005,21.0433963 C13.4692005,21.5714416 13.0352157,22 12.5004844,22 C11.9647843,22 11.5317682,21.5714416 11.5317682,21.0433963 L11.5317682,19.1177531 C7.29944726,18.6404079 4,15.0866252 4,10.7828653 C4,10.2538635 4.43398484,9.82626164 4.96871617,9.82626164 C5.50344749,9.82626164 5.93743233,10.2538635 5.93743233,10.7828653 C5.93743233,14.35578 8.88136076,17.2628986 12.5004844,17.2628986 C16.1186392,17.2628986 19.0625677,14.35578 19.0625677,10.7828653 C19.0625677,10.2538635 19.4965525,9.82626164 20.0312838,9.82626164 Z M12.3250499,15.217393 C9.92166505,15.217393 7.97357684,13.2927064 7.97357684,10.9203293 L7.97357684,6.29706371 C7.97357684,3.92372999 9.92166505,2 12.3250499,2 L12.6747564,2 C15.0781412,2 17.0271981,3.92372999 17.0271981,6.29706371 L17.0271981,10.9203293 C17.0271981,13.2927064 15.0781412,15.217393 12.6747564,15.217393 L12.3250499,15.217393 Z" id="Voice"></path>
            </g>
        </g>
    </g>
</svg>
