<?xml version="1.0" encoding="UTF-8"?>
<svg width="40px" height="40px" viewBox="0 0 40 40" version="1.1" xmlns="http://www.w3.org/2000/svg" xmlns:xlink="http://www.w3.org/1999/xlink">
    <!-- Generator: Sketch 52 (66869) - http://www.bohemiancoding.com/sketch -->
    <title>home_banner_ic_not</title>
    <desc>Created with Sketch.</desc>
    <g id="Page-1" stroke="none" stroke-width="1" fill="none" fill-rule="evenodd">
        <g id="首页_2" transform="translate(-1122.000000, -170.000000)" fill-rule="nonzero">
            <g id="home_banner_ic_not" transform="translate(1122.000000, 170.000000)">
                <rect id="矩形" opacity="0.282435826" x="0" y="0" width="40" height="40"></rect>
                <circle id="椭圆形" stroke="#FFFFFF" stroke-width="2" cx="17.5" cy="9.5" r="6.5"></circle>
                <circle id="椭圆形-copy-4" stroke="#FFFFFF" stroke-width="2" cx="27" cy="30" r="7"></circle>
                <rect id="矩形" fill="#FFFFFF" opacity="0.5" transform="translate(27.010408, 30.010408) rotate(-315.000000) translate(-27.010408, -30.010408) " x="26.0104076" y="22.5104076" width="2" height="15"></rect>
                <g id="人员1" transform="translate(5.000000, 17.000000)" fill="#FFFFFF">
                    <path d="M22.9492414,6.45491606 C22.5369666,4.25883284 19.8786387,2.52815726 17.7369613,2.36089473 L15.1014834,4.31413186 C13.6329443,5.40219638 11.6598592,5.40512917 10.1885015,4.32293022 L7.52201786,2.36089473 C5.19377743,2.54272761 2.25495441,4.57221724 2.25495441,7.03869236 L2.25495441,18.5947814 C2.25495441,19.2429276 1.75040836,19.7678968 1.12747721,19.7678968 C0.504546049,19.7678968 0,19.2429276 0,18.5947814 L0,7.03869236 C0,5.15877494 1.09821649,3.29464946 2.74554122,2.0617503 C4.39286595,0.828851145 6.0562975,0 7.86307972,0 C8.09703124,0 8.32252668,0.0762525005 8.5141978,0.214093559 L11.4907376,2.40488656 C12.1813174,2.91225896 13.1058487,2.90932617 13.7936098,2.40195377 L16.7419627,0.217026348 C16.9336338,0.0762525005 17.161948,0 17.3958995,0 C19.2026817,0 20.8661133,0.549108244 22.513438,1.92607514 C24.1607627,3.30304203 25.8080874,5.15877494 25.8080874,7.03869236 L25.7679925,7.88249774 L22.9492414,6.45491606 Z" id="合并形状"></path>
                </g>
            </g>
        </g>
    </g>
</svg>