<?xml version="1.0" encoding="UTF-8"?>
<svg width="20px" height="20px" viewBox="0 0 20 20" version="1.1" xmlns="http://www.w3.org/2000/svg" xmlns:xlink="http://www.w3.org/1999/xlink">
    <!-- Generator: Sketch 52 (66869) - http://www.bohemiancoding.com/sketch -->
    <title>left_list_ic_blacklist</title>
    <desc>Created with Sketch.</desc>
    <g id="Page-1" stroke="none" stroke-width="1" fill="none" fill-rule="evenodd">
        <g id="首页" transform="translate(-24.000000, -624.000000)">
            <g id="分组-17">
                <g id="left_list_ic_blacklist" transform="translate(24.000000, 624.000000)">
                    <rect id="矩形" opacity="0.213378906" x="0" y="0" width="20" height="20"></rect>
                    <g id="黑名单-(1)" transform="translate(2.000000, 1.000000)" fill="#5082F4" fill-rule="nonzero">
                        <path d="M8.9533801,13.7723658 C9.00206112,13.9976806 9.08116776,14.2342611 9.19070002,14.4821074 C9.30023229,14.7299536 9.46148813,14.9806163 9.67446756,15.2340954 C9.88744699,15.4875746 10.1551926,15.7382373 10.4777042,15.9860835 C10.8002159,16.2339298 11.2109619,16.4648774 11.7099423,16.6789264 C11.3813455,16.7465209 10.9979825,16.8028496 10.5598534,16.8479125 C10.1825756,16.8929755 9.72619112,16.9295891 9.1907,16.9577535 C8.65520889,16.9859178 8.04061113,17 7.34690673,17 C6.99396939,17 6.58626593,16.9887343 6.12379634,16.9662028 C5.66132674,16.9436713 5.18060176,16.9126905 4.68162139,16.8732604 C4.18264103,16.8338303 3.68974579,16.785951 3.2029357,16.7296223 C2.7161256,16.6732936 2.27191138,16.6169649 1.87029303,16.5606362 C1.46867468,16.5043075 1.12790761,16.4479788 0.847991808,16.3916501 C0.568076007,16.3353214 0.391607341,16.2789927 0.318585811,16.222664 C0.19688329,16.1325381 0.102563832,15.8565275 0.0356274367,15.3946322 C-0.0313089584,14.9327369 -0.00392588929,14.3356528 0.117776644,13.6033797 C0.190798162,13.1865474 0.37335195,12.8682903 0.665438008,12.6486084 C0.957524067,12.4289265 1.3013337,12.2543075 1.69686691,12.1247515 C2.09240013,11.9951955 2.50010359,11.8797217 2.9199773,11.7783301 C3.33985102,11.6769384 3.71408629,11.5304838 4.04268312,11.3389662 C4.29825843,11.1925116 4.49602504,11.0488735 4.63598294,10.9080517 C4.77594084,10.76723 4.87330286,10.6292247 4.928069,10.4940358 C4.98283513,10.358847 5.0102182,10.2180252 5.0102182,10.0715706 C5.0102182,9.92511602 5.00413308,9.7617628 4.99196282,9.58151097 C4.96762232,9.32239897 4.8702603,9.11679924 4.69987676,8.96471176 C4.52949322,8.81262428 4.34693944,8.65772037 4.1522154,8.50000002 C4.05485338,8.42113985 3.96661905,8.31129889 3.88751241,8.17047716 C3.80840577,8.02965542 3.73842682,7.88601725 3.67757556,7.73956265 C3.61672429,7.57057656 3.55587303,7.39032474 3.49502177,7.19880718 C3.40983,7.1762757 3.32463823,7.13684561 3.23944647,7.08051691 C3.16642495,7.02418822 3.09036087,6.94532805 3.01125423,6.84393639 C2.93214759,6.74254474 2.86216864,6.59609013 2.80131738,6.40457257 C2.72829586,6.21305501 2.70091279,6.03843606 2.71916817,5.88071571 C2.73742355,5.72299537 2.77089175,5.58217363 2.81957277,5.45825051 C2.86825378,5.33432738 2.94736042,5.21603712 3.05689269,5.10337972 C3.05689269,4.67528165 3.08123319,4.24718357 3.12991421,3.81908549 C3.17859523,3.45858184 3.26378699,3.06991385 3.38548952,2.65308152 C3.50719204,2.23624919 3.69583095,1.86447981 3.95140626,1.53777336 C4.18264106,1.22233268 4.44125893,0.96322068 4.72725987,0.760437375 C5.0132608,0.557654071 5.3023043,0.399933726 5.59439037,0.287276342 C5.88647645,0.174618958 6.18160507,0.0985752193 6.47977625,0.0591451249 C6.77794743,0.0197150306 7.06699094,-1.10677084e-08 7.34690676,0 C7.69984409,0 8.04061117,0.0394300888 8.36920798,0.118290266 C8.6978048,0.197150444 9.00206112,0.298542096 9.28197693,0.422465223 C9.56189274,0.54638835 9.81138292,0.687210086 10.0304475,0.84493043 C10.249512,1.00265077 10.4259807,1.16037112 10.5598535,1.31809146 C10.87628,1.67859511 11.1075148,2.0757124 11.2535579,2.50944334 C11.3996009,2.94317428 11.503048,3.35719018 11.5638993,3.75149105 C11.6247506,4.20212061 11.6551762,4.65838303 11.6551762,5.12027832 C11.740368,5.17660701 11.8073044,5.24983431 11.8559854,5.33996022 C11.9046664,5.4188204 11.9442197,5.52021205 11.9746453,5.64413518 C12.0050709,5.76805831 12.0081135,5.92577865 11.983773,6.11729621 C11.9594325,6.35387674 11.9077089,6.54257786 11.8286023,6.6833996 C11.7494956,6.82422134 11.6612613,6.93406229 11.5638993,7.01292247 C11.454367,7.10304838 11.3387496,7.16500994 11.2170471,7.19880716 C11.1561958,7.39032472 11.0953446,7.57057655 11.0344933,7.73956263 C10.9736421,7.88601723 10.9036631,8.0296554 10.8245565,8.17047714 C10.7454498,8.31129887 10.6572155,8.42113983 10.5598535,8.50000001 C10.4503212,8.59012592 10.3651294,8.68025183 10.3042782,8.77037774 C10.2434269,8.86050365 10.1947459,8.95062956 10.1582351,9.04075546 C10.1217244,9.13088137 10.0821711,9.22945659 10.0395752,9.33648111 C9.9969793,9.44350562 9.93308547,9.55334658 9.8478937,9.66600398 C9.27589183,10.4771372 8.94425244,11.2094102 8.85297554,11.8628231 C8.76169865,12.5162359 8.79516684,13.1527502 8.95338014,13.7723658 Z" id="形状"></path>
                    </g>
                    <path d="M15.5,10 C15.9772727,10 16.4280303,10.0903569 16.8522727,10.2710706 C17.2765152,10.4517844 17.6477273,10.7015945 17.9659091,11.0205011 C18.2840909,11.3394077 18.5359848,11.7114654 18.7215909,12.1366743 C18.907197,12.5618831 19,13.0136674 19,13.4920273 C19,13.9703872 18.907197,14.4221716 18.7215909,14.8473804 C18.5359849,15.2725892 18.2840909,15.6446469 17.9659091,15.9635535 C17.6477273,16.2824601 17.2765151,16.5349279 16.8522727,16.7209567 C16.4280303,16.9069856 15.9772727,17 15.5,17 C15.0121212,17 14.5560606,16.9069856 14.1318182,16.7209567 C13.7075758,16.5349279 13.3363636,16.2824601 13.0181818,15.9635535 C12.7,15.6446469 12.4507576,15.2725892 12.2704545,14.8473804 C12.0901515,14.4221716 12,13.9703873 12,13.4920273 C12,13.0136674 12.0901515,12.5618831 12.2704545,12.1366743 C12.4507576,11.7114655 12.7,11.3394077 13.0181818,11.0205011 C13.3363636,10.7015945 13.7075757,10.4517843 14.1318182,10.2710706 C14.5560606,10.0903569 15.0121212,10 15.5,10 Z M17.375,14 C17.5486111,14 17.6961806,13.9565217 17.8177083,13.8695652 C17.9392361,13.7826087 18,13.6666667 18,13.5217391 C18,13.3768116 17.9392361,13.2536232 17.8177083,13.1521739 C17.6961805,13.0507246 17.5486111,13 17.375,13 L13.625,13 C13.4513889,13 13.3038194,13.0507246 13.1822917,13.1521739 C13.0607639,13.2536232 13,13.3768116 13,13.5217391 C13,13.6666667 13.0607639,13.7826087 13.1822917,13.8695652 C13.3038195,13.9565217 13.4513889,14 13.625,14 L17.375,14 Z" id="合并形状" fill="#5082F4" fill-rule="nonzero" opacity="0.5"></path>
                </g>
            </g>
        </g>
    </g>
</svg>