<?xml version="1.0" encoding="UTF-8"?>
<svg width="48px" height="48px" viewBox="0 0 48 48" version="1.1" xmlns="http://www.w3.org/2000/svg" xmlns:xlink="http://www.w3.org/1999/xlink">
    <title>menu_ic_hint</title>
    <g id="页面-1" stroke="none" stroke-width="1" fill="none" fill-rule="evenodd">
        <g id="设置" transform="translate(-30.000000, -386.000000)">
            <g id="2" transform="translate(0.000000, 356.000000)">
                <g id="ic" transform="translate(30.000000, 30.000000)">
                    <rect id="矩形" fill="#EAEAEA" opacity="0" x="0" y="0" width="48" height="48"></rect>
                    <g transform="translate(6.000000, 3.000000)" fill-rule="nonzero">
                        <path d="M17.9734057,1.5 C21.5045272,1.5 24.7013578,2.93126979 27.0154079,5.24531996 C29.3294581,7.55937014 30.7607279,10.7562007 30.7607279,14.2873222 L30.7607279,14.2873222 L30.7607279,25.1637851 L35.1551856,30.2477694 L0.857701012,30.2477694 L5.18608348,25.1568257 L5.18608348,14.2873222 C5.18608348,10.7562007 6.61735327,7.55937014 8.93140344,5.24531996 C11.2454536,2.93126979 14.4422842,1.5 17.9734057,1.5 Z" id="矩形" stroke="#5082F4" stroke-width="3"></path>
                        <path d="M18,42.0736896 C14.2558495,42.0736896 11.1124515,39.4897166 10.2403939,36.0000526 L13.4294126,36.0007482 C14.1933897,37.7760873 15.9522785,39.0184224 18,39.0184224 C20.0477215,39.0184224 21.8066103,37.7760873 22.5705874,36.0007482 L25.7596061,36.0000526 C24.8875485,39.4897166 21.7441505,42.0736896 18,42.0736896 Z" id="合并形状" fill="#6ECC94"></path>
                    </g>
                </g>
            </g>
        </g>
    </g>
</svg>