<?xml version="1.0" encoding="UTF-8"?>
<svg width="20px" height="20px" viewBox="0 0 20 20" version="1.1" xmlns="http://www.w3.org/2000/svg" xmlns:xlink="http://www.w3.org/1999/xlink">
    <!-- Generator: Sketch 52 (66869) - http://www.bohemiancoding.com/sketch -->
    <title>left_list_ic_reception</title>
    <desc>Created with Sketch.</desc>
    <g id="Page-1" stroke="none" stroke-width="1" fill="none" fill-rule="evenodd">
        <g id="客服工作台" transform="translate(-24.000000, -301.000000)">
            <g id="分组-55" transform="translate(0.000000, 187.000000)">
                <g id="left_list_ic_grouping" transform="translate(24.000000, 110.000000)">
                    <rect id="矩形" opacity="0.213378906" x="0" y="4" width="20" height="20"></rect>
                    <g id="36合作、关系" transform="translate(2.000000, 5.000000)" fill="#5082F4" fill-rule="nonzero">
                        <path d="M1.66533454e-16,3 C1.66533454e-16,1.35 1.35,0 3,0 C4.65,0 6,1.35 6,3 C6,4.65 4.65,6 3,6 C1.35,6 -1.66533454e-16,4.65 1.66533454e-16,3 Z M9.23584981,9.85714286 L9.23584981,11 L7.49099352,12.6607143 L5.76415019,11 L5.76415019,9.85714286 C5.76415019,8.28571429 4.4672164,7 2.88207509,7 C1.29693379,7 0,8.28571429 0,9.85714286 L0,16.2857143 C0,16.6785714 0.324233448,17 0.720518774,17 L5.04363141,17 C5.43991674,17 5.76415019,16.6785714 5.76415019,16.2857143 L5.76415019,12.6607143 L7.09470819,14.0892857 C7.11272116,14.0892857 7.11272116,14.1071429 7.13073413,14.1071429 C7.34688976,14.2321429 7.6170843,14.25 7.8512529,14.1071429 L9.23584981,12.6428571 L9.23584981,16.2857143 C9.23584981,16.6785714 9.56008326,17 9.95636859,17 L14.2794812,17 C14.6757666,17 15,16.6785714 15,16.2857143 L15,9.85714286 C15,8.28571429 13.7030662,7 12.1179249,7 C10.5327836,7 9.23584981,8.28571429 9.23584981,9.85714286 Z" id="形状"></path>
                        <path d="M12,6 C13.65,6 15,4.65 15,3 C15,1.35 13.65,0 12,0 C10.35,0 9,1.35 9,3 C9,4.65 10.33125,6 12,6 Z" id="路径" opacity="0.5"></path>
                    </g>
                    <g id="计时器_stopwatch-start" transform="translate(17.000000, 0.000000)" fill="#FFFFFF" fill-opacity="0.01">
                        <rect id="矩形" x="0" y="0" width="20" height="20"></rect>
                    </g>
                </g>
            </g>
        </g>
    </g>
</svg>