<?xml version="1.0" encoding="UTF-8"?>
<svg width="20px" height="20px" viewBox="0 0 20 20" version="1.1" xmlns="http://www.w3.org/2000/svg" xmlns:xlink="http://www.w3.org/1999/xlink">
    <!-- Generator: Sketch 52 (66869) - http://www.bohemiancoding.com/sketch -->
    <title>left_list_ic_list</title>
    <desc>Created with Sketch.</desc>
    <g id="Page-1" stroke="none" stroke-width="1" fill="none" fill-rule="evenodd">
        <g id="首页" transform="translate(-24.000000, -224.000000)">
            <g id="分组-17">
                <g id="left_list_ic_list" transform="translate(24.000000, 224.000000)">
                    <rect id="矩形" opacity="0.213378906" x="0" y="0" width="20" height="20"></rect>
                    <path d="M12.745565,13.755136 C12.540269,14.986736 12.615903,16.037824 12.702353,16.632384 C12.702353,16.632384 10.685325,17.4215893 6.651269,19 L6.651269,16.016592 C6.651269,15.857328 6.586438,15.708688 6.478382,15.602528 C6.370326,15.496352 6.219058,15.43264 6.056974,15.43264 C6.056974,15.43264 5.329403,15.43264 3.874261,15.43264 C3.62574,15.43264 3.420431,15.241536 3.420431,15.007968 C3.420431,15.007968 3.420431,14.2152213 3.420431,12.629728 C3.420431,12.321824 3.182713,12.067024 2.869348,12.045792 C2.869348,12.045792 2.635231,12.028096 2.166997,11.992704 C1.572689,11.95024 1.367393,11.90776 1.324168,11.897152 C1,11.748512 1,11.546784 1,11.483072 C1,11.46184 1.064831,10.98408 2.555996,9.264096 C2.555996,9.264096 2.57400533,9.242864 2.610024,9.2004 C2.772095,9.009296 2.772095,8.818176 2.772095,8.4572 C2.772095,8.4572 2.772095,8.400576 2.772095,8.287328 C2.782911,8.244864 2.782911,8.213008 2.782911,8.170544 C2.793714,5.505648 5.538313,3.031856 8.531433,3 C8.531433,3 8.55304333,3 8.596264,3 C11.513737,3 13.999012,5.325152 13.999012,8.064368 C14.020618,8.881888 13.685647,10.04976 13.372295,11.185792 C13.372295,11.185792 13.372295,11.185792 13.372295,11.185792 C13.134564,12.045792 12.886043,12.937616 12.745565,13.755136 C12.745565,13.755136 12.745565,13.755136 12.745565,13.755136 Z" id="Vector" fill="#5082F4"></path>
                    <rect id="矩形" fill="#5082F4" fill-rule="nonzero" opacity="0.5" x="15" y="13" width="4" height="2"></rect>
                    <rect id="矩形-copy" fill="#5082F4" fill-rule="nonzero" opacity="0.5" x="15" y="9" width="4" height="2"></rect>
                </g>
            </g>
        </g>
    </g>
</svg>