<?xml version="1.0" encoding="UTF-8"?>
<svg width="20px" height="20px" viewBox="0 0 20 20" version="1.1" xmlns="http://www.w3.org/2000/svg" xmlns:xlink="http://www.w3.org/1999/xlink">
    <!-- Generator: Sketch 52 (66869) - http://www.bohemiancoding.com/sketch -->
    <title>left_list_ic_service</title>
    <desc>Created with Sketch.</desc>
    <g id="Page-1" stroke="none" stroke-width="1" fill="none" fill-rule="evenodd">
        <g id="首页" transform="translate(-24.000000, -274.000000)">
            <g id="分组-17">
                <g id="left_list_ic_service" transform="translate(24.000000, 274.000000)">
                    <rect id="矩形" opacity="0.213378906" x="0" y="0" width="20" height="20"></rect>
                    <path d="M3,13.4983158 C3,14.2768758 3.1972141,15 4.5,15 C5.8027859,15 6,14.0472051 6,13.4983158 C6,13.1323895 6,11.6329509 6,9 C6,7.5 5.05105394,7.647088 5.02552697,7.647088 C5,7.647088 5,7.5 5,7.5 C5.15993452,5.63993499 6.18151914,3 10,3 C13.8184809,3 15,6.34567532 15,7.5 C15,7.6505591 15,7.81722576 15,8 C14.8826565,8 14.7715454,8 14.6666667,8 C14.2442476,8 14,8.221568 14,9 C14,9 14,10.5652674 14,13.6958021 C14,14.4743621 14.109138,15 15,15 C15.189672,15 14.8410054,15.052736 15.0102934,15 C15.0102934,15 15.0068623,15 15,15 C15,16.1100085 14,16 13.5,16 C13.1666667,16 12.5,16 11.5,16 C11,15.5 10.8254858,15.4233998 10,15.4233998 C9.1745142,15.4233998 8.5,16.221552 8.5,17 C8.5,17.778448 9.35705138,18.5 10,18.5 C10.6429486,18.5 11,18.5 11.516186,18 C11.8387287,18 12.6666667,18 14,18 C15.1796722,18 17,17.4640537 17,15 C17,12.5359463 17,10.951296 17,8.11768 C17,4.744512 14.293057,1 10,1 C5.7326899,1 3,4.626832 3,8 L3,13.4983158 Z" id="合并形状" fill="#5082F4"></path>
                    <path d="M1.99969377,14.4983158 C1.99969377,14.4983158 1.99969377,12.3322105 1.99969377,8 C0.838523591,8.19582801 0,8.71561679 0,9.33104877 C0,9.33104877 0,10.6097882 0,13.167267 C0,13.7828254 0.838523591,14.3026142 1.99969377,14.4983158 Z" id="Vector" fill="#5082F4" opacity="0.5"></path>
                    <path d="M19.9996938,13.167267 C19.9996938,13.167267 19.9996938,11.8885276 19.9996938,9.33104877 C19.9996938,8.71561679 18,8 18,8 L18,14.4983158 C19.1611702,14.3026142 19.9996938,13.7828254 19.9996938,13.167267 Z" id="Vector" fill="#5082F4" opacity="0.5"></path>
                </g>
            </g>
        </g>
    </g>
</svg>