<?xml version="1.0" encoding="UTF-8"?>
<svg width="24px" height="24px" viewBox="0 0 24 24" version="1.1" xmlns="http://www.w3.org/2000/svg" xmlns:xlink="http://www.w3.org/1999/xlink">
    <title>left_btn_ic_qr_nor</title>
    <g id="Page-1" stroke="none" stroke-width="1" fill="none" fill-rule="evenodd">
        <g id="首页" transform="translate(-200.000000, -80.000000)" fill-rule="nonzero">
            <g id="left_btn_ic_qr" transform="translate(200.000000, 80.000000)">
                <g id="编组" transform="translate(3.000000, 3.000000)">
                    <path d="M0,9 L8,9 L8,17 L0,17 L0,9 Z M2,11 L2,15 L6,15 L6,11 L2,11 Z M0,0 L8,0 L8,8 L0,8 L0,0 Z M2,2 L2,6 L6,6 L6,2 L2,2 Z M9,0 C10.5897436,0 13.2564103,0 17,0 L17,8 L9,8 L9,0 Z M11,2 L11,6 L15,6 L15,2 L11,2 Z" id="形状" fill="#5082F4"></path>
                    <polygon id="路径" fill="#6ECC94" points="11 11 15 11 15 9 17 9 17 12.5384615 15 12.5 15 15 11 15 11 12 9 12 9 9 11 9"></polygon>
                    <polygon id="路径" fill="#6ECC94" points="15 15 17 15 17 17 15 17"></polygon>
                    <polygon id="路径" fill="#6ECC94" points="9 15 11 15 11 17 9 17"></polygon>
                </g>
            </g>
        </g>
    </g>
</svg>