<?xml version="1.0" encoding="UTF-8"?>
<svg width="20px" height="20px" viewBox="0 0 20 20" version="1.1" xmlns="http://www.w3.org/2000/svg" xmlns:xlink="http://www.w3.org/1999/xlink">
    <!-- Generator: Sketch 52 (66869) - http://www.bohemiancoding.com/sketch -->
    <title>left_list_ic_problem</title>
    <desc>Created with Sketch.</desc>
    <g id="Page-1" stroke="none" stroke-width="1" fill="none" fill-rule="evenodd">
        <g id="首页" transform="translate(-24.000000, -524.000000)">
            <g id="分组-17">
                <g id="left_list_ic_problem" transform="translate(24.000000, 524.000000)">
                    <rect id="矩形" opacity="0.213378906" x="0" y="0" width="20" height="20"></rect>
                    <g id="常见问题-(1)" transform="translate(1.000000, 1.000000)" fill="#5082F4" fill-rule="nonzero">
                        <path d="M9,0 C13.9724121,0 18,4.02622038 18,8.99549566 C18,13.9691654 13.9724121,18 9,18 C4.03088379,18 0,13.9691654 0,8.99549566 C0,4.02644011 4.03088379,0 9,0 Z M9,14 C9.55258085,14 10,13.5525809 10,13 C10,12.4474191 9.55150996,12 9,12 C8.44849004,12 8,12.4474191 8,13 C8,13.5525809 8.44741915,14 9,14 Z M10.6228516,9.3948194 C11.0888672,9.08994031 12.3789063,8.47080724 12.3789062,6.84172556 C12.3789062,5.2128392 11.0099609,4.09293099 9.86289063,3.85582451 C8.71582031,3.61871803 7.5,3.61871803 6.5,4.5 C5.62794803,5.26852368 5.02188026,6 5,8 L6.99980469,7.99971924 L6.99980469,7.44972596 C6.99980469,6.64485297 7.29277344,5.79583989 8.44277344,5.56381148 C9.06972656,5.43666459 9.7578125,5.6337325 10.1078125,5.97474396 C10.5078125,6.36477826 10.5607422,7.24484564 9.92480469,7.68175437 L8.85488281,8.36084765 C8.271875,8.73486652 7.99980469,9.14990051 7.99980469,9.76083056 L7.99980469,10.9998657 L8.19375,10.9998657 L9.99980469,10.9998657 L9.99980469,10.4268381 C9.99980469,10.0528192 10.1568359,9.70087035 10.6228516,9.3948194 Z" id="合并形状"></path>
                    </g>
                </g>
            </g>
        </g>
    </g>
</svg>