<?xml version="1.0" encoding="UTF-8"?>
<svg width="16px" height="16px" viewBox="0 0 16 16" version="1.1" xmlns="http://www.w3.org/2000/svg" xmlns:xlink="http://www.w3.org/1999/xlink">
    <title>com_dialogue_ic_withdraw@2x</title>
    <g id="Page-1" stroke="none" stroke-width="1" fill="none" fill-rule="evenodd" opacity="0.9">
        <g id="客服工作台" transform="translate(-1380.000000, -627.000000)" fill="#28324C">
            <g id="编组-5" transform="translate(1380.000000, 626.000000)">
                <g id="编组-8" transform="translate(0.000000, 1.000000)">
                    <path d="M5.24927997,15.9934907 C4.76831107,15.9376011 4.39497731,15.5286527 4.39497731,15.0324671 C4.39497731,14.4981135 4.82795611,14.0649343 5.36206253,14.0649343 L5.36206253,14.0649343 L10.1974887,14.0649343 C12.1753728,14.0649343 13.9836788,12.5369669 14.0947664,10.5832598 L14.1001673,10.3928993 L14.1001673,10.0093778 C14.1001673,8.02198533 12.6447018,6.12245867 10.6906283,6.00567907 L10.5,6 L3.471,6 L5.51378792,7.8401223 C5.70811313,8.01356239 5.80396272,8.24283592 5.80396272,8.47092151 C5.80396272,8.69781915 5.70811313,8.92590474 5.51641393,9.09934482 C5.13301555,9.44741293 4.51064968,9.44978882 4.12462528,9.10172071 L0.28013736,5.6388588 C-0.0914439513,5.30504603 -0.0914439513,4.71107315 0.28013736,4.37726039 L4.12462528,0.913210529 C4.51064968,0.566330365 5.13301555,0.567518311 5.51641393,0.915586421 C5.89981232,1.26484248 5.89981232,1.82792877 5.51378792,2.17480894 L3.488,4 L10.5,4 C13.5247104,4 15.8878448,6.77617724 15.9961222,9.79348031 L16,10.0093778 L16,10.3928993 C16,13.4111094 13.6041824,15.8798981 10.6164079,15.9957485 L10.39676,16 L9.20239849,16 L9.186,15.999 L5.36206253,16 Z" id="com_dialogue_ic_withdraw"></path>
                </g>
            </g>
        </g>
    </g>
</svg>