<?xml version="1.0" encoding="UTF-8"?>
<svg width="16px" height="16px" viewBox="0 0 16 16" version="1.1" xmlns="http://www.w3.org/2000/svg" xmlns:xlink="http://www.w3.org/1999/xlink">
    <!-- Generator: Sketch 52 (66869) - http://www.bohemiancoding.com/sketch -->
    <title>service_ic_set </title>
    <desc>Created with Sketch.</desc>
    <g id="Page-1" stroke="none" stroke-width="1" fill="none" fill-rule="evenodd" opacity="0.9">
        <g id="客服工作台" transform="translate(-1001.000000, -105.000000)" fill="#28324C" fill-rule="nonzero">
            <g id="service_ic_set-" transform="translate(1001.000000, 105.000000)">
                <path d="M14.8011491,10.2775 C15.079767,10.7425 15.0571764,11.3125 14.7860887,11.815 L14.2589739,12.715 C13.980356,13.195 13.4607714,13.495 12.9261263,13.495 C12.6625689,13.495 12.3688906,13.42 12.1279238,13.27 C11.9321383,13.1425 11.7062319,13.0975 11.4652651,13.0975 C10.7197741,13.0975 10.0947665,13.72 10.0721758,14.4625 C10.0721758,15.325 9.3793963,16 8.51342188,16 L7.48931301,16 C6.61580838,16 5.92302885,15.325 5.92302885,14.4625 C5.90796843,13.72 5.28296081,13.0975 4.53746979,13.0975 C4.28897278,13.0975 4.06306642,13.1425 3.87481111,13.27 C3.63384432,13.42 3.33263582,13.495 3.07660861,13.495 C2.53443332,13.495 2.01484867,13.195 1.73623082,12.715 L1.21664617,11.815 C0.938028314,11.3275 0.922967889,10.7425 1.20158574,10.2775 C1.32206914,10.0525 1.54797551,9.8275 1.80400273,9.685 C2.01484867,9.58 2.15039249,9.4075 2.2784061,9.205 C2.65491672,8.56 2.42901035,7.7125 1.7889423,7.33 C1.04345129,6.9025 0.802484492,5.95 1.23170659,5.2075 L1.73623082,4.3225 C2.17298313,3.58 3.10672945,3.3175 3.85975068,3.7525 C4.51487915,4.1125 5.36579314,3.8725 5.74983397,3.235 C5.87031737,3.025 5.93808928,2.8 5.92302885,2.575 C5.90796843,2.2825 5.99080076,2.005 6.1338748,1.78 C6.41249265,1.315 6.91701688,1.015 7.46672237,1 L8.52848231,1 C9.08571802,1 9.59024224,1.315 9.8688601,1.78 C10.0044039,2.005 10.0947665,2.2825 10.0721758,2.575 C10.0571154,2.8 10.1248873,3.025 10.2453707,3.235 C10.6294115,3.8725 11.4803255,4.1125 12.1429842,3.7525 C12.8884752,3.3175 13.8297518,3.58 14.2589739,4.3225 L14.7634981,5.2075 C15.2002504,5.95 14.9592836,6.9025 14.2062624,7.33 C13.5661943,7.7125 13.340288,8.56 13.7243288,9.205 C13.8448122,9.4075 13.980356,9.58 14.191202,9.685 C14.4547594,9.8275 14.6580751,10.0525 14.8011491,10.2775 Z M8.01061947,11 C9.12212389,11 10,10.1150442 10,9.00353982 C10,7.8920354 9.12212389,7 8.01061947,7 C6.89911504,7 6,7.8920354 6,9.00353982 C6,10.1150442 6.89911504,11 8.01061947,11 Z" id="service_ic_set"></path>
            </g>
        </g>
    </g>
</svg>