<?xml version="1.0" encoding="UTF-8"?>
<svg width="40px" height="40px" viewBox="0 0 40 40" version="1.1" xmlns="http://www.w3.org/2000/svg" xmlns:xlink="http://www.w3.org/1999/xlink">
    <title>send</title>
    <g id="页面-1" stroke="none" stroke-width="1" fill="none" fill-rule="evenodd">
        <g id="聊天" transform="translate(-656.000000, -1698.000000)" fill="#FFFFFF">
            <g id="操作" transform="translate(20.000000, 1682.000000)">
                <g id="btn" transform="translate(602.000000, 0.000000)">
                    <g id="send" transform="translate(34.000000, 16.000000)">
                        <path d="M11.8633545,23.9034671 L11.7888603,23.8388906 L24.8044994,13.3660061 L7.48309137,20.0948846 L0.491059021,14.0132069 C0.0860295856,13.6607026 -0.086423396,13.1230752 0.04158198,12.6119487 C0.169587356,12.1008221 0.577552475,11.6980475 1.10489183,11.5621673 L38.1285448,2.04788612 C38.6462304,1.91579094 39.1976935,2.06147368 39.5729755,2.42946859 C39.9482576,2.79746349 40.0896137,3.33114677 39.9432253,3.82732936 L30.0801837,36.9594144 C29.9387673,37.4358368 29.5521766,37.808281 29.0575769,37.9446012 C28.5629771,38.0809214 28.0303558,37.9618278 27.6486907,37.6295757 L18.0717071,29.3006333 L11.8633545,35.2789886 L11.8633545,23.9034671 Z" id="路径"></path>
                    </g>
                </g>
            </g>
        </g>
    </g>
</svg>