<?xml version="1.0" encoding="UTF-8"?>
<svg width="24px" height="24px" viewBox="0 0 24 24" version="1.1" xmlns="http://www.w3.org/2000/svg" xmlns:xlink="http://www.w3.org/1999/xlink">
    <title>service_bot_ic_link_nor_2</title>
    <g id="Page-1" fill="none" fill-rule="evenodd" stroke-linecap="round">
        <g id="咨询客服弹窗备份" transform="translate(-1531.000000, -1360.000000)" stroke-width="2">
            <g id="编组-3" transform="translate(1511.000000, 828.000000)">
                <g id="分组-2" transform="translate(20.000000, 532.000000)">
                    <path d="M6,15 L5.99743732,7.57179326 C5.99638876,4.53241182 8.45825114,2.06702641 11.497631,2.06372861 C14.5337368,2.06043436 16.9976575,4.51901395 17.0009517,7.55511982 C17.0009534,7.55669776 17.0009544,7.5582757 17.0009548,7.55985365 L17.0032875,17.9779656 C17.0037828,20.1897322 15.2138516,21.9845276 13.0020918,21.9900349 C10.7972943,21.9955248 9.00550228,20.2126337 9.00001238,18.0078361 C9.00000413,18.0045227 9,18.0012092 9,17.9978958 L9,10.5159937 C9,9.13398415 10.1179975,8.01240763 11.5,8.00799048 C12.8763059,8.00359154 13.9955883,9.11574188 13.9999873,10.4920478 C13.9999958,10.4947028 14,10.4973578 14,10.5000128 L14,14.9920095 L14,14.9920095" id="路径"></path>
                </g>
            </g>
        </g>
    </g>
</svg>
