<?xml version="1.0" encoding="UTF-8"?>
<svg width="20px" height="20px" viewBox="0 0 20 20" version="1.1" xmlns="http://www.w3.org/2000/svg" xmlns:xlink="http://www.w3.org/1999/xlink">
    <title>send</title>
    <g id="Page-1" stroke="none" stroke-width="1" fill="none" fill-rule="evenodd">
        <g id="咨询客服弹窗" transform="translate(-1913.000000, -706.000000)" fill="#FFFFFF">
            <g id="分组-22" transform="translate(1881.000000, 694.000000)">
                <g id="send" transform="translate(32.000000, 12.000000)">
                    <path d="M5.93167726,11.9517336 L5.89443014,11.9194453 L12.4022497,6.68300306 L3.74154568,10.0474423 L0.245529511,7.00660343 C0.0430147928,6.83035128 -0.043211698,6.5615376 0.02079099,6.30597433 C0.084793678,6.05041106 0.288776237,5.84902377 0.552445917,5.78108364 L19.0642724,1.02394306 C19.3231152,0.957895472 19.5988467,1.03073684 19.7864878,1.21473429 C19.9741288,1.39873175 20.0448068,1.66557339 19.9716126,1.91366468 L15.0400919,18.4797072 C14.9693836,18.7179184 14.7760883,18.9041405 14.5287884,18.9723006 C14.2814885,19.0404607 14.0151779,18.9809139 13.8243453,18.8147878 L9.03585356,14.6503166 L5.93167726,17.6394943 L5.93167726,11.9517336 Z" id="路径"></path>
                </g>
            </g>
        </g>
    </g>
</svg>