<?xml version="1.0" encoding="UTF-8"?>
<svg width="24px" height="24px" viewBox="0 0 24 24" version="1.1" xmlns="http://www.w3.org/2000/svg" xmlns:xlink="http://www.w3.org/1999/xlink">
    <title>service_bot_ic_praise_nor_1</title>
    <g id="Page-1" stroke="none" stroke-width="1" fill-rule="evenodd">
        <g id="咨询客服弹窗" transform="translate(-538.000000, -74.000000)" fill-rule="nonzero">
            <g id="service_bot_ic_file" transform="translate(538.000000, 74.000000)">
                <g id="点赞" transform="translate(3.000000, 1.000000)">
                    <path d="M17.6946507,8.01087197 L12.4998212,8.01087197 C14.512757,0.389269596 11.1128918,0 11.1128918,0 C9.67188842,0 9.97061341,1.16815241 9.86163879,1.3628903 C9.86163879,5.09019313 6,8.01087197 6,8.01087197 L6,18.5808714 C6,19.624223 7.38692944,20 7.93099814,20 L15.7362134,20 C16.4707921,20 17.0689795,18.0250174 17.0689795,18.0250174 C19,11.2934458 19,9.29053878 19,9.29053878 C19,7.89974699 17.6946507,8.01087197 17.6946507,8.01087197 L17.6946507,8.01087197 L17.6946507,8.01087197 Z" id="路径"></path>
                    <path d="M3.3054934,8 L0.573007149,8 C0.00869531614,8 0,8.64764625 0,8.64764625 L0.564311833,19.3206835 C0.564311833,20 1.14668165,20 1.14668165,20 L3.5116684,20 C4.0043568,20 4,19.5506314 4,19.5506314 L4,8.80936206 C4,7.98963651 3.3054934,8 3.3054934,8 L3.3054934,8 L3.3054934,8 Z" id="路径"></path>
                </g>
            </g>
        </g>
    </g>
</svg>
