<?xml version="1.0" encoding="UTF-8"?>
<svg width="24px" height="24px" viewBox="0 0 24 24" version="1.1" xmlns="http://www.w3.org/2000/svg" xmlns:xlink="http://www.w3.org/1999/xlink">
    <title>service_bot_ic_expression_nor_1</title>
    <g id="Page-1" stroke="none" stroke-width="1" fill-rule="evenodd">
        <g id="咨询客服弹窗" transform="translate(-418.000000, -74.000000)" fill-rule="nonzero">
            <g id="service_bot_ic_expression" transform="translate(418.000000, 74.000000)">
                <path d="M11.9995452,2 C15.5723095,2 18.8737492,3.90579123 20.6601782,6.99986872 C22.4466073,10.0939462 22.4466073,13.9060538 20.6601782,17.0001313 C18.8737492,20.0942088 15.5723095,22 11.9995452,22 C6.47687534,21.9997489 2,17.5226699 2,12 C2,6.47733009 6.47687534,2.00025115 11.9995452,2 Z M17,13 L7,13 C7,15.2505882 9.07954525,17.5411765 11.9795452,17.5411765 C14.8807217,17.5411765 17,15.2505882 17,13 L17,13 Z M15.1083688,7.7135294 C14.3192513,7.7135294 13.6795452,8.35323549 13.6795452,9.14235293 C13.6795452,9.93147038 14.3192513,10.5711765 15.1083688,10.5711765 C15.8974862,10.5711765 16.5371923,9.93147038 16.5371923,9.14235293 C16.5371923,8.35323549 15.8974862,7.7135294 15.1083688,7.7135294 Z M8.89013349,7.71411764 C8.10134092,7.71411764 7.4618982,8.35356036 7.4618982,9.14235293 C7.4618982,9.93114549 8.10134094,10.5705882 8.89013349,10.5705882 C9.67892604,10.5705882 10.3183688,9.93114549 10.3183688,9.14235293 C10.3183688,8.35356036 9.67892606,7.71411764 8.89013349,7.71411764 Z" id="合并形状"></path>
            </g>
        </g>
    </g>
</svg>
