<?xml version="1.0" encoding="UTF-8"?>
<svg width="18px" height="18px" viewBox="0 0 18 18" version="1.1" xmlns="http://www.w3.org/2000/svg" xmlns:xlink="http://www.w3.org/1999/xlink">
    <title>session_list_ic_win@2x</title>
    <g id="Page-1" stroke="none" stroke-width="1" fill="none" fill-rule="evenodd">
        <g id="会话记录_2" transform="translate(-581.000000, -869.000000)" fill-rule="nonzero">
            <g id="session_list_ic_win" transform="translate(581.000000, 869.000000)">
                <circle id="椭圆形备份-3" fill="#FFFFFF" cx="9" cy="9" r="9"></circle>
                <path d="M7.97727273,5.72727273 L4.22727272,6.1541502 C4.1590909,6.1541502 4.09090909,6.23952569 4.09090909,6.29644269 L4.09090909,8.85770752 C4.09090909,8.94308301 4.15909091,9 4.26136364,9 L8.01136363,9 C8.11363636,9 8.18181818,8.943083 8.18181818,8.85770752 L8.18181818,5.86956522 C8.18181818,5.84110673 8.14772728,5.78418973 8.11363636,5.75573122 C8.07954545,5.72727273 8.04545454,5.72727273 7.97727273,5.72727273 Z M13.8477273,4.93831169 C13.8170455,4.90909091 13.7556818,4.90909091 13.725,4.90909091 L9.12272727,5.49350649 C9.06136363,5.49350649 9,5.55194805 9,5.63961039 L9,8.85389611 C9,8.94155845 9.06136364,9 9.15340909,9 L13.7556818,9 C13.8477273,9 13.9090909,8.94155844 13.9090909,8.85389611 L13.9090909,5.0551948 C13.9090909,5.02597402 13.8784091,4.96753246 13.8477273,4.93831169 Z M8.01136363,9.81818182 L4.26136364,9.81818182 C4.15909091,9.81818182 4.09090909,9.87509882 4.09090909,9.9604743 L4.09090909,12.5217391 C4.09090909,12.6071146 4.15909091,12.6640316 4.22727272,12.6640316 L7.97727273,13.0909091 L8.01136363,13.0909091 C8.04545454,13.0909091 8.07954545,13.0909091 8.11363636,13.0624506 C8.14772727,13.0339921 8.18181818,13.0055336 8.18181818,12.9486166 L8.18181818,9.9604743 C8.18181818,9.87509881 8.11363636,9.81818182 8.01136363,9.81818182 Z M13.7556818,9.81818182 L9.15340909,9.81818182 C9.06136363,9.81818182 9,9.87662338 9,9.96428571 L9,13.1785714 C9,13.2662338 9.06136364,13.3246753 9.12272727,13.3246753 L13.725,13.9090909 L13.7556818,13.9090909 C13.7863636,13.9090909 13.8170455,13.9090909 13.8477273,13.8798701 C13.8784091,13.8506494 13.9090909,13.8214286 13.9090909,13.762987 L13.9090909,9.96428571 C13.9090909,9.87662337 13.8477273,9.81818182 13.7556818,9.81818182 Z" id="形状" fill="#578EFC"></path>
            </g>
        </g>
    </g>
</svg>