<?xml version="1.0" encoding="UTF-8"?>
<svg width="18px" height="18px" viewBox="0 0 18 18" version="1.1" xmlns="http://www.w3.org/2000/svg" xmlns:xlink="http://www.w3.org/1999/xlink">
    <title>session_list_ic_android@2x</title>
    <g id="Page-1" stroke="none" stroke-width="1" fill="none" fill-rule="evenodd">
        <g id="会话记录_2" transform="translate(-582.000000, -710.000000)" fill-rule="nonzero">
            <g id="session_list_ic_android" transform="translate(582.000000, 710.000000)">
                <circle id="椭圆形备份" fill="#FFFFFF" cx="9" cy="9" r="9"></circle>
                <path d="M14.5227255,7.54432832 C14.6590665,7.66476174 14.7272727,7.81220135 14.7272727,7.98661928 L14.7272727,11.6622227 C14.7272727,11.828345 14.6590808,11.9716437 14.5227255,12.0920911 C14.3863559,12.2124966 14.2201461,12.2727273 14.0241246,12.2727273 L13.7940286,12.2727273 C13.5980072,12.2727273 13.4318259,12.2124966 13.2954563,12.0920911 C13.1591153,11.9716577 13.0909091,11.828345 13.0909091,11.6622227 L13.0909091,7.98661928 C13.0909091,7.81220135 13.159101,7.66473385 13.2954563,7.54432832 C13.4317973,7.42388096 13.5980072,7.36363636 13.7940286,7.36363636 L14.0241246,7.36363636 C14.2201461,7.36363636 14.3863273,7.42388096 14.5227255,7.54432832 Z M4.71426945,7.54432832 C4.84414558,7.66476174 4.90909091,7.81220135 4.90909091,7.98661928 L4.90909091,11.6622227 C4.90909091,11.828345 4.84416011,11.9716437 4.71426945,12.0920911 C4.58439332,12.2124966 4.419901,12.2727273 4.22074889,12.2727273 L3.98700964,12.2727273 C3.78787206,12.2727273 3.61904908,12.2124966 3.48051164,12.0920911 C3.34198873,11.9716577 3.27272727,11.828345 3.27272727,11.6622227 L3.27272727,7.98661928 C3.27272727,7.81220135 3.34198873,7.66473385 3.48051164,7.54432832 C3.61904908,7.42388096 3.78787206,7.36363636 3.98700964,7.36363636 L4.22077795,7.36363636 C4.419901,7.36363636 4.58439332,7.42388096 4.71426945,7.54432832 Z M11.2528949,4.51259832 C11.4026821,4.60551376 11.5467311,4.71504034 11.6850161,4.84115578 C11.8230984,4.9670364 11.9448242,5.10559261 12.0480206,5.25435097 C12.1517215,5.40368413 12.2266538,5.56132843 12.2727273,5.72727273 L5.72727273,5.72727273 C5.85021277,5.37547526 6.04417795,5.08674666 6.30921986,4.86106464 C6.57427466,4.63538262 6.84123791,4.4561806 7.1101225,4.3234363 L6.52242424,3.52692594 C6.50705351,3.51366822 6.50514507,3.48876822 6.51666022,3.4522705 C6.52817537,3.41577278 6.56851064,3.37760392 6.63765313,3.3377862 C6.69912315,3.29131734 6.75672469,3.26974848 6.81050935,3.27305734 C6.86428111,3.27639962 6.89886525,3.28467734 6.91421019,3.29795734 L7.51344939,4.11436542 C7.72854932,4.02808998 7.9551773,3.96170112 8.19333333,3.9152434 C8.43150226,3.86878568 8.67733075,3.84555682 8.93084462,3.84555682 C9.45324307,3.84555682 9.94109607,3.93847226 10.394352,4.12433656 L11.0050677,3.29796848 C11.0204513,3.28468848 11.0492714,3.27805962 11.0915409,3.27805962 C11.1337847,3.27805962 11.197176,3.29796848 11.2816634,3.33780848 C11.3584784,3.37099734 11.4026564,3.40085506 11.4142102,3.42741506 C11.4256995,3.45396392 11.423804,3.47387278 11.4084333,3.48714164 L10.8207608,4.29356744 C10.9590329,4.34666516 11.103069,4.41967174 11.2528949,4.51259832 Z M7.77272727,5.72727273 C7.88707899,5.72727273 7.98387335,5.68766828 8.06303652,5.60850368 C8.14221445,5.52932432 8.18181818,5.43254298 8.18181818,5.3181892 C8.18181818,5.20382065 8.14221445,5.10702455 8.06305128,5.02787472 C7.98387335,4.94866582 7.88707899,4.90909091 7.77272727,4.90909091 C7.65837555,4.90909091 7.56159596,4.94866582 7.48241803,5.02785995 C7.40322533,5.10702455 7.36363636,5.20382065 7.36363636,5.31817443 C7.36363636,5.43254298 7.40322533,5.52933909 7.48240326,5.60848892 C7.56159596,5.68766828 7.65837555,5.72727273 7.77272727,5.72727273 Z M10.2272727,5.72727273 C10.3416286,5.72727273 10.4384264,5.6876971 10.5175924,5.60850154 C10.5967437,5.52932075 10.6363636,5.43253766 10.6363636,5.31818182 C10.6363636,5.20381121 10.5967585,5.10704289 10.5176072,5.02784733 C10.4384264,4.9486813 10.3416286,4.90909091 10.2272727,4.90909091 C10.1128873,4.90909091 10.016119,4.94866654 9.936953,5.02784733 C9.85775745,5.10704289 9.81818182,5.20381121 9.81818182,5.31819659 C9.81818182,5.43253766 9.85775745,5.52932075 9.93693824,5.60851631 C10.0161338,5.6876971 10.1128873,5.72727273 10.2272727,5.72727273 Z M12.261138,6.54545455 L12.2727273,11.8660205 C12.2727273,12.0394177 12.192192,12.1852296 12.0802139,12.3034694 C11.9682099,12.4216959 11.8958623,12.3896104 11.7336898,12.3896104 L11.5026738,12.3896104 L11.5026738,14.1361267 C11.5026738,14.2937665 11.4752691,14.4316931 11.363304,14.5499329 C11.2513,14.6681727 11.1142118,14.7272727 10.9520393,14.7272727 L10.6160791,14.7272727 C10.4616069,14.7272727 10.2670842,14.6681859 10.1550802,14.5499329 C10.0431021,14.4317063 9.96256684,14.2937533 9.96256684,14.1361267 L9.96256684,12.3896104 L8.03743316,12.3896104 L8.03743316,14.1361267 C8.03743316,14.3376623 7.95689787,14.4316931 7.84491979,14.5499329 C7.73294171,14.6681727 7.4997491,14.7272727 7.33756367,14.7272727 L7.07486631,14.7272727 C6.92039412,14.7272727 6.74961824,14.6681859 6.63765313,14.5499329 C6.52564912,14.4317063 6.4973262,14.2030562 6.4973262,14.0454296 L6.4973262,12.3896104 L6.30921986,12.3896104 C6.14704739,12.3896104 6.00723089,12.4217092 5.89523985,12.3034694 C5.78326177,12.1852428 5.72727273,12.0394044 5.72727273,11.8660072 L5.72727273,6.54545455 L12.261138,6.54545455 Z" id="形状" fill="#45C97D"></path>
            </g>
        </g>
    </g>
</svg>