<?xml version="1.0" encoding="UTF-8"?>
<svg width="18px" height="18px" viewBox="0 0 18 18" version="1.1" xmlns="http://www.w3.org/2000/svg" xmlns:xlink="http://www.w3.org/1999/xlink">
    <title>session_list_ic_mac@2x</title>
    <g id="Page-1" stroke="none" stroke-width="1" fill="none" fill-rule="evenodd">
        <g id="会话记录_2" transform="translate(-581.000000, -629.000000)" fill-rule="nonzero">
            <g id="session_list_ic_mac" transform="translate(581.000000, 629.000000)">
                <circle id="椭圆形" fill="#FFFFFF" cx="9" cy="9" r="9"></circle>
                <path d="M12.2911627,8.85672444 C12.2761771,7.49134132 13.5365178,6.83703842 13.5925847,6.80406294 C12.8841275,5.87727846 11.7808772,5.75083115 11.3878927,5.73570705 C10.4492256,5.6511609 9.55603213,6.23009128 9.07933499,6.23009128 C8.60392971,6.23009128 7.86860176,5.74835178 7.08986724,5.76149238 C6.06619566,5.77463299 5.12210277,6.293067 4.59579812,7.11274316 C3.53233718,8.76250878 4.32347358,11.2061652 5.35980541,12.5440275 C5.86621538,13.1993221 6.47029014,13.9344521 7.26297677,13.9084189 C8.02646731,13.880898 8.31532769,13.4663491 9.23823403,13.4663491 C10.1613987,13.4663491 10.4205463,13.9081709 11.2287353,13.8947824 C12.0503596,13.880898 12.5709801,13.2273389 13.0740312,12.5703087 C13.6553692,11.8108809 13.8948804,11.0752551 13.9090909,11.0373209 C13.8910048,11.0298828 12.3066651,10.4876469 12.2911627,8.85672444 L12.2911627,8.85672444 Z M10.8117472,4.97039769 C11.2343192,4.52054181 11.5194598,3.89574197 11.4417811,3.27272727 C10.8327802,3.29459526 10.0947132,3.62886318 9.65827855,4.07804964 C9.26582196,4.47635953 8.92307971,5.11253966 9.01509907,5.72305835 C9.69484728,5.76991834 10.3882191,5.42003043 10.8117472,4.97084398 L10.8117472,4.97039769 Z" id="形状" fill="#E46463"></path>
            </g>
        </g>
    </g>
</svg>