<?xml version="1.0" encoding="UTF-8"?>
<svg width="18px" height="18px" viewBox="0 0 18 18" version="1.1" xmlns="http://www.w3.org/2000/svg" xmlns:xlink="http://www.w3.org/1999/xlink">
    <title>session_list_ic_os@2x</title>
    <g id="Page-1" stroke="none" stroke-width="1" fill="none" fill-rule="evenodd">
        <g id="会话记录_2" transform="translate(-581.000000, -788.000000)" fill-rule="nonzero">
            <g id="session_list_ic_os" transform="translate(581.000000, 788.000000)">
                <circle id="椭圆形备份-2" fill="#FFFFFF" cx="9" cy="9" r="9"></circle>
                <path d="M13.4069034,4.90909091 C13.6478954,4.90909091 13.9108705,5.09455821 13.9090727,5.42927789 L13.9090727,5.42927789 L13.9354712,11.6691393 C13.9354712,11.8869492 13.7557099,12.2727273 13.433302,12.2727273 L13.433302,12.2727273 L9.81818182,12.2727273 L9.81818182,13.0909091 C9.81818182,13.0909091 9.82339659,13.096378 9.83287799,13.1063216 L9.93338083,13.2117233 C10.1154237,13.4026396 10.449169,13.7526529 10.449169,13.7526529 C10.449169,13.7526529 10.4713964,13.7923641 10.4713964,13.8489224 C10.4713964,13.9054808 10.4398101,13.9090909 10.3064456,13.9090909 L10.3064456,13.9090909 L7.22096025,13.9090909 C7.08759576,13.9090909 7.05600943,13.9066842 7.05600943,13.8501258 C7.05600943,13.7947708 7.07823685,13.7538563 7.07823685,13.7538563 C7.07823685,13.7538563 7.44557063,13.4032065 7.64593451,13.211943 L7.75655206,13.1063496 L7.75655206,13.1063496 L7.77272727,13.0909091 L7.75953255,12.2727273 L3.83014916,12.2727273 C3.58915718,12.2727273 3.2991258,11.9886611 3.2991258,11.6548565 L3.2991258,11.6548565 L3.27272727,5.42927789 C3.27272727,5.21146803 3.46778246,4.90909091 3.80375063,4.90909091 L3.80375063,4.90909091 Z M8.99949874,6.54545455 C8.99949874,6.54545455 8.61415221,6.60690353 8.38783758,7.05980529 C8.32564198,7.18364593 8.28210958,7.32415969 8.25167975,7.46282924 C8.1161257,7.42007968 7.95259274,7.38080538 7.76824842,7.37891651 C7.43260184,7.3747492 6.86865509,7.54005248 6.67059336,8.03179503 C6.47253163,8.52353758 6.48311509,9.23336935 6.89586967,9.89319339 C7.22849239,10.4210526 7.52029326,10.6363636 7.8030226,10.6363636 C8.08575193,10.6363636 8.41988661,10.453002 8.68598481,10.453002 C8.95208301,10.453002 9.20003814,10.6363636 9.47520786,10.6363636 C9.74886567,10.6363636 10.031595,10.4446674 10.2387283,10.1807378 C10.4443496,9.91680814 10.6333398,9.50563359 10.6333398,9.50563359 C10.6333398,9.50563359 10.6348517,9.49452077 10.6363636,9.47924063 C10.2326806,9.34449762 9.9469274,9.00972372 9.9469274,8.61799661 C9.9469274,8.26933169 10.1737156,7.96511808 10.5063384,7.80814941 C10.2735025,7.52199414 9.86225979,7.36363636 9.57801853,7.36363636 C9.34832855,7.36363636 9.06107838,7.45571739 8.85494732,7.51662939 C9.01611281,7.07999935 8.99949874,6.54545455 8.99949874,6.54545455 Z" id="形状结合" fill="#F98E49"></path>
            </g>
        </g>
    </g>
</svg>