<?xml version="1.0" encoding="UTF-8"?>
<svg width="16px" height="16px" viewBox="0 0 16 16" version="1.1" xmlns="http://www.w3.org/2000/svg" xmlns:xlink="http://www.w3.org/1999/xlink">
    <!-- Generator: Sketch 52 (66869) - http://www.bohemiancoding.com/sketch -->
    <title>service_ic_transfer</title>
    <desc>Created with Sketch.</desc>
    <g id="Page-1" stroke="none" stroke-width="1" fill="none" fill-rule="evenodd" opacity="0.9">
        <g id="客服工作台" transform="translate(-544.000000, -104.000000)" fill="#28324C" fill-rule="nonzero">
            <g id="service_ic_transfer" transform="translate(544.000000, 104.000000)">
                <path d="M2.82870811,10.4298221 C2.82870811,10.0224281 3.14206299,9.69263297 3.52914844,9.69263297 C3.91623389,9.69263297 4.22958878,10.0224281 4.22958878,10.4298221 L4.42181488,13.9910552 C4.42181488,14.5102284 4.02244101,14.9305556 3.52914844,14.9305556 C3.03585587,14.9305556 2.63560425,14.5102284 2.63560425,13.9910552 L2.82870811,10.4298221 Z M4.15963252,2.21616823 C4.28427228,2.30947162 4.48527583,2.52379226 4.48527583,2.52379226 C5.26559094,3.28222867 6.4408912,5.16861984 6.81832146,6.12567236 C6.82622116,6.12567236 7.05004608,6.69473061 7.05882353,6.9654028 L7.05882353,7.00143084 C7.05882353,7.41621519 6.83499861,7.80420945 6.47512325,8.00282557 C6.27763067,8.11183348 5.70358559,8.21067964 5.69480814,8.21991759 C5.1804497,8.30121163 4.39135714,8.35479179 3.52502304,8.35479179 C2.61567945,8.35479179 1.79235484,8.30121163 1.2858961,8.20144168 C1.27711866,8.20144168 0.814547157,8.10259552 0.660064075,8.0388536 C0.437116901,7.94000745 0.248401773,7.75894346 0.128150738,7.53353726 C0.0421317495,7.35339707 -9.9475983e-14,7.16309512 -9.9475983e-14,6.9654028 C0.00789970303,6.75754873 0.136928186,6.36955447 0.196614831,6.21620435 C0.574045087,5.20464787 1.80903199,3.27299071 2.56389251,2.53303022 C2.68414354,2.40647018 2.82984917,2.27067219 2.86408122,2.23464415 C3.05279635,2.08129404 3.28452097,2 3.53380049,2 C3.75586992,2 3.97881709,2.07205608 4.15963252,2.21616823 Z M12.1714674,7.57027439 C12.1714674,7.9776771 11.8581126,8.3074793 11.4710271,8.3074793 C11.0839417,8.3074793 10.7705868,7.9776771 10.7705868,7.57027439 L10.5774829,4.00896498 C10.5774829,3.48978057 10.9777345,3.06944444 11.4710271,3.06944444 C11.9643197,3.06944444 12.3636936,3.48978057 12.3636936,4.00896498 L12.1714674,7.57027439 Z M14.3399359,9.96101696 C14.5628831,10.0607891 14.7515982,10.2409331 14.8718493,10.4663441 C14.9578683,10.6464882 15,10.8367942 15,11.0354146 C14.9921003,11.2423493 14.8630718,11.6312757 14.8025074,11.7846291 C14.4259549,12.7952834 13.1900903,14.726982 12.4361075,15.4678822 C12.3158565,15.5935211 12.1701508,15.729322 12.1359188,15.7653508 C11.9463259,15.9187042 11.715479,16 11.4670773,16 C11.2432523,16 11.0203052,15.9279424 10.8403675,15.7829033 C10.7157277,15.6905218 10.5147242,15.4761965 10.5147242,15.4761965 C9.73353131,14.7186677 8.5591088,12.8313123 8.18167854,11.8742392 C8.17290109,11.8742392 7.94995392,11.3060926 7.94117647,11.0354146 L7.94117647,10.9993858 C7.94117647,10.5836687 8.16412364,10.1956661 8.52487675,9.99704577 C8.72236933,9.88895934 9.29641441,9.78918725 9.30519186,9.77994909 C9.8195503,9.69865331 10.6086429,9.645072 11.474977,9.645072 C12.3843206,9.645072 13.2076452,9.69865331 13.7141039,9.79842541 C13.7220036,9.79842541 14.1854528,9.89727368 14.3399359,9.96101696 Z" id="Swap"></path>
            </g>
        </g>
    </g>
</svg>