<?xml version="1.0" encoding="UTF-8"?>
<svg width="20px" height="20px" viewBox="0 0 20 20" version="1.1" xmlns="http://www.w3.org/2000/svg" xmlns:xlink="http://www.w3.org/1999/xlink">
    <!-- Generator: Sketch 52 (66869) - http://www.bohemiancoding.com/sketch -->
    <title>left_list_ic_current</title>
    <desc>Created with Sketch.</desc>
    <g id="Page-1" stroke="none" stroke-width="1" fill="none" fill-rule="evenodd">
        <g id="客服工作台" transform="translate(-24.000000, -201.000000)">
            <g id="分组-55" transform="translate(0.000000, 187.000000)">
                <g id="left_list_ic_home" transform="translate(24.000000, 14.000000)">
                    <rect id="矩形" opacity="0.213378906" x="0" y="0" width="20" height="20"></rect>
                    <path d="M9.00001627,16.9999936 C13.4176003,16.9999936 17,13.418966 17,8.99952312 C17,4.581975 13.4176003,1 9.00001627,1 C4.58243223,1 1.00003255,4.58102764 1.00003255,8.99952312 C0.994300079,10.9977566 1.74596725,12.9268725 3.10925977,14.4127485 L2.40457294,16.8730471 L5.15082159,16.0147373 C6.32619165,16.6626794 7.65193929,17.0016971 9.00001627,16.9999936 Z" id="合并形状" fill="#5082F4" fill-rule="nonzero"></path>
                    <path d="M6,10 C5.44771525,10 5,9.55228475 5,9 C5,8.44771525 5.44771525,8 6,8 C6.55228475,8 7,8.44771525 7,9 C7,9.55228475 6.55228475,10 6,10 Z M12,10 C11.4477153,10 11,9.55228475 11,9 C11,8.44771525 11.4477153,8 12,8 C12.5522847,8 13,8.44771525 13,9 C13,9.55228475 12.5522847,10 12,10 Z M9,10 C8.44771525,10 8,9.55228475 8,9 C8,8.44771525 8.44771525,8 9,8 C9.55228475,8 10,8.44771525 10,9 C10,9.55228475 9.55228475,10 9,10 Z" id="合并形状" fill="#FFFFFF" fill-rule="nonzero"></path>
                    <path d="M16.788944,9 C17.9250068,9.94071564 18.5051116,10.6802789 18.5,12 C18.5046827,13.2422794 17.9970684,14.9701549 16.9785765,15.8939789 L17.5046536,17.4237572 L15.4533606,16.8899976 C14.5754515,17.2921412 13.5852187,17.5028957 12.5782878,17.5019089 C11.5750709,17.5019089 10.6460559,17.4354499 9.80007025,16.6517211 C9.65888138,16.5209224 9,16.1491213 9,15.8939789" id="路径" fill="#5082F4" fill-rule="nonzero" opacity="0.5"></path>
                </g>
            </g>
        </g>
    </g>
</svg>