<?xml version="1.0" encoding="UTF-8"?>
<svg width="24px" height="24px" viewBox="0 0 24 24" version="1.1" xmlns="http://www.w3.org/2000/svg" xmlns:xlink="http://www.w3.org/1999/xlink">
    <!-- Generator: Sketch 52 (66869) - http://www.bohemiancoding.com/sketch -->
    <title>com_nav_ic_volume</title>
    <desc>Created with Sketch.</desc>
    <g id="Page-1" stroke="none" stroke-width="1" fill="none" fill-rule="evenodd">
        <g id="客服工作台" transform="translate(-1588.000000, -18.000000)">
            <g id="com_nav_ic_volume" transform="translate(1588.000000, 18.000000)">
                <rect id="矩形" fill="#D8D8D8" fill-rule="nonzero" opacity="0" x="0" y="0" width="24" height="24"></rect>
                <g id="分组-7" transform="translate(4.000000, 4.000000)" stroke-width="2">
                    <path d="M10,0 L10,16 C6.73333333,16 3.6393,11.9284889 3.6393,11.9284889 L0.933333333,11.9284889 C0.417867333,11.9284889 0,11.5305333 0,11.0396 L0,4.89368889 C0,4.40275556 0.417867333,4.0048 0.933333333,4.0048 L3.6393,4.0048 C3.6393,4.0048 6.73333333,0 10,0 Z" id="路径" stroke="#5082F4"></path>
                    <path d="M15,4 C15.2596667,4.231875 15.4950417,4.49154167 15.7017083,4.7745 C16.3077917,5.60433333 16.6666667,6.63429167 16.6666667,7.75 C16.6666667,8.85604167 16.3139583,9.87779167 15.7174167,10.703875 C15.507,10.9952083 15.2662917,11.2622083 15,11.5" id="路径" stroke="#6ECC94" stroke-linecap="round"></path>
                </g>
            </g>
        </g>
    </g>
</svg>