<?xml version="1.0" encoding="UTF-8"?>
<svg width="24px" height="24px" viewBox="0 0 24 24" version="1.1" xmlns="http://www.w3.org/2000/svg" xmlns:xlink="http://www.w3.org/1999/xlink">
    <title>com_nav_ic_volume_close</title>
    <g id="Page-1" stroke="none" stroke-width="1" fill="none" fill-rule="evenodd">
        <g id="客服工作台_增加备注" transform="translate(-1588.000000, -56.000000)">
            <g id="com_nav_ic_volume备份" transform="translate(1588.000000, 56.000000)">
                <rect id="矩形" fill="#D8D8D8" fill-rule="nonzero" opacity="0" x="0" y="0" width="24" height="24"></rect>
                <g id="分组-7" transform="translate(4.000000, 4.000000)">
                    <path d="M10,0 L10,16 C6.73333333,16 3.6393,11.9284889 3.6393,11.9284889 L0.933333333,11.9284889 C0.417867333,11.9284889 0,11.5305333 0,11.0396 L0,4.89368889 C0,4.40275556 0.417867333,4.0048 0.933333333,4.0048 L3.6393,4.0048 C3.6393,4.0048 6.73333333,0 10,0 Z" id="路径" stroke="#5082F4" stroke-width="2"></path>
                    <path d="M16.1116792,2.96019929 C16.663964,2.96019929 17.1116792,3.40791454 17.1116792,3.96019929 L17.1116792,6.95919929 L20.1116792,6.96019929 C20.663964,6.96019929 21.1116792,7.40791454 21.1116792,7.96019929 C21.1116792,8.51248404 20.663964,8.96019929 20.1116792,8.96019929 L17.1116792,8.95919929 L17.1116792,11.9601993 C17.1116792,12.512484 16.663964,12.9601993 16.1116792,12.9601993 C15.5593945,12.9601993 15.1116792,12.512484 15.1116792,11.9601993 L15.1116792,8.95919929 L12.1116792,8.96019929 C11.5593945,8.96019929 11.1116792,8.51248404 11.1116792,7.96019929 C11.1116792,7.40791454 11.5593945,6.96019929 12.1116792,6.96019929 L15.1116792,6.95919929 L15.1116792,3.96019929 C15.1116792,3.40791454 15.5593945,2.96019929 16.1116792,2.96019929 Z" id="形状结合" fill="#6ECC94" transform="translate(16.111679, 7.960199) rotate(-315.000000) translate(-16.111679, -7.960199) "></path>
                </g>
            </g>
        </g>
    </g>
</svg>