<?xml version="1.0" encoding="UTF-8"?>
<svg width="22px" height="22px" viewBox="0 0 22 22" version="1.1" xmlns="http://www.w3.org/2000/svg" xmlns:xlink="http://www.w3.org/1999/xlink">
    <!-- Generator: Sketch 52 (66869) - http://www.bohemiancoding.com/sketch -->
    <title>com_pop_ic_prompt</title>
    <desc>Created with Sketch.</desc>
    <g id="Page-1" stroke="none" stroke-width="1" fill="none" fill-rule="evenodd">
        <g id="客服列表_弹窗_删除" transform="translate(-852.000000, -462.000000)" fill="#F6AB67" fill-rule="nonzero">
            <g id="分组-11" transform="translate(717.000000, 390.000000)">
                <g id="分组-9" transform="translate(135.000000, 72.000000)">
                    <g id="提示">
                        <g id="com_pop_ic_prompt">
                            <path d="M11,7.63278329e-16 C4.88125,7.63278329e-16 0,4.88125 0,11 C0,17.11875 4.88125,22 11,22 C17.11875,22 22,17.11875 22,11 C22,4.88125 17.11875,0 11,7.63278329e-16 Z M10.3876596,4.51772825 C10.6891727,4.20995745 10.9476124,4.00477692 11.4357764,4.00477692 C11.9813715,3.96080966 12.4838932,4.2246132 12.6849019,4.62031851 C12.9146262,4.89877781 13.043846,5.51431941 12.986415,5.88071321 C12.986415,5.98330348 12.9146262,6.67212384 12.8859106,6.86264862 L12.4838932,12.0654407 C12.4838932,12.578392 12.3833889,13.0913434 12.1823802,13.4870487 C12.0818758,13.7948195 11.7803628,14 11.3783454,14 C11.0768323,14 10.7753193,13.7948195 10.6748149,13.4870487 C10.4738062,12.9740973 10.3733019,12.5637363 10.3733019,12.0654407 L10.1005044,6.96523889 C10,6.04192649 10,6.34969729 10,5.83674596 C10,5.33845038 10.1005044,4.92808931 10.3876596,4.51772825 Z M12.6,17.6233184 C12.3,17.9058296 11.9,18 11.6,18 C11.2,18 10.8,17.9058296 10.5,17.6233184 C10.2,17.3408072 10,16.9641256 10,16.5067265 C10,16.1300448 10.1,15.7533632 10.4,15.470852 C10.7,15.1883408 11.1,15 11.5,15 C11.9,15 12.3,15.1883408 12.6,15.470852 C12.9,15.7533632 13,16.1300448 13,16.5067265 C12.9857143,16.9641256 12.8857143,17.3408072 12.6,17.6233184 Z" id="形状"></path>
                        </g>
                    </g>
                </g>
            </g>
        </g>
    </g>
</svg>