<?xml version="1.0" encoding="UTF-8"?>
<svg width="28px" height="29px" viewBox="0 0 28 29" version="1.1" xmlns="http://www.w3.org/2000/svg" xmlns:xlink="http://www.w3.org/1999/xlink">
    <title>编组</title>
    <g id="页面-1" stroke="none" stroke-width="1" fill="none" fill-rule="evenodd">
        <g id="A4" transform="translate(-219.000000, -360.000000)" fill-rule="nonzero">
            <g id="headphones" transform="translate(219.000000, 360.000000)">
                <rect id="矩形" fill="#000000" opacity="0" x="0" y="0" width="28" height="28"></rect>
                <path d="M14,2.33333333 C20.5588193,2.46102998 25.777244,7.87253645 25.6666667,14.4316667 L25.6666667,14.4316667 L25.6681492,18.3018998 C25.7554121,18.9675883 25.7417186,19.6413704 25.6416617,20.3098443 C25.6074989,20.6560278 25.534644,20.9906727 25.4282207,21.3099706 C24.2894965,25.4134804 20.0935716,29.0516407 16.3509423,29.000081 L16.514608,28.9983333 L16.5,29 C16.495631,29 16.4912664,28.9999813 16.4869062,28.999944 L16.3509423,29.000081 C16.3509423,28.9971632 16.3509372,28.994257 16.350927,28.9913625 C15.5927654,28.9181598 15,28.2783038 15,27.5 C15,26.6715729 15.6715729,26 16.5,26 C17.184384,26 17.7617178,26.4583363 17.9417954,27.0848027 C19.4808489,26.5722267 20.9371241,25.7440286 22.0406163,24.3844972 C21.7058211,24.4597762 21.3576079,24.5 21,24.5 C18.4226712,24.5 16.3333333,22.4106622 16.3333333,19.8333333 C16.3333333,17.2560045 18.4226712,15.1666667 21,15.1666667 C21.8224532,15.1701143 22.628675,15.3958565 23.3333333,15.82 L23.3333333,15.82 L23.3333333,14.4316667 C23.4441662,9.16105817 19.2702337,4.79408132 14,4.66666667 C8.72976629,4.79408132 4.55583382,9.16105817 4.66666667,14.4316667 L4.66666667,14.4316667 L4.66666667,15.82 C5.37132501,15.3958565 6.17754681,15.1701143 7,15.1666667 C9.57732883,15.1666667 11.6666667,17.2560045 11.6666667,19.8333333 C11.6666667,22.4106622 9.57732883,24.5 7,24.5 C4.42267117,24.5 2.33333333,22.4106622 2.33333333,19.8333333 L2.33333333,19.8333333 L2.33333333,14.4316667 C2.22275599,7.87253645 7.44118073,2.46102998 14,2.33333333 Z" id="形状结合" fill="#FFFFFF"></path>
            </g>
        </g>
    </g>
</svg>